<?xml version="1.0" encoding="utf-8"?><!DOCTYPE svg PUBLIC "-//W3C//DTD SVG 1.1//EN" "http://www.w3.org/Graphics/SVG/1.1/DTD/svg11.dtd"><svg viewBox="0 0 512 512" xmlns="http://www.w3.org/2000/svg" xmlns:xlink="http://www.w3.org/1999/xlink"><style>:root>svg{display:none}:root>svg:target{display:block}</style><svg viewBox="0 0 20 20" id="alarm" xmlns="http://www.w3.org/2000/svg"><path d="M16.8 15.101A4.466 4.466 0 0115 11.5v-3a5.51 5.51 0 00-4-5.292V2.5c0-.827-.673-1.5-1.5-1.5S8 1.673 8 2.5v.708A5.51 5.51 0 004 8.5v3a4.468 4.468 0 01-1.8 3.601.5.5 0 00.3.9h4.55a2.503 2.503 0 002.449 3 2.503 2.503 0 002.45-3h4.55a.5.5 0 00.3-.9zM9 2.5a.5.5 0 011 0v.523a5.508 5.508 0 00-1 0V2.5zm2 14c0 .827-.673 1.5-1.5 1.5a1.502 1.502 0 01-1.414-2h2.828c.056.16.086.329.086.5zM3.742 15c.255-.309.477-.646.659-1.001A5.435 5.435 0 005 11.5v-3C5 6.019 7.019 4 9.5 4S14 6.019 14 8.5v3a5.448 5.448 0 001.258 3.5H3.741z"/></svg><svg viewBox="0 0 20 20" id="arrow-left" xmlns="http://www.w3.org/2000/svg"><path d="M.646 10.146l6-6a.5.5 0 01.707.707L2.207 9.999H18.5a.5.5 0 010 1H2.207l5.146 5.146a.5.5 0 01-.708.707l-6-6a.5.5 0 010-.707z"/></svg><svg viewBox="0 0 20 20" id="arrow-right" xmlns="http://www.w3.org/2000/svg"><path d="M19.354 10.146l-6-6a.5.5 0 00-.707.707l5.146 5.146H1.5a.5.5 0 000 1h16.293l-5.146 5.146a.5.5 0 00.708.707l6-6a.5.5 0 000-.707z"/></svg><svg viewBox="0 0 20 20" id="book" xmlns="http://www.w3.org/2000/svg"><path d="M14.5 18h-10a.5.5 0 010-1h10a.5.5 0 010 1z"/><path d="M16.5 3a.5.5 0 00-.5.5v15a.5.5 0 01-.5.5h-11c-.827 0-1.5-.673-1.5-1.5S3.673 16 4.5 16h9c.827 0 1.5-.673 1.5-1.5v-12c0-.827-.673-1.5-1.5-1.5h-10C2.673 1 2 1.673 2 2.5v15C2 18.878 3.122 20 4.5 20h11c.827 0 1.5-.673 1.5-1.5v-15a.5.5 0 00-.5-.5zm-13-1h10a.5.5 0 01.5.5v12a.5.5 0 01-.5.5h-9c-.562 0-1.082.187-1.5.501V2.5a.5.5 0 01.5-.5z"/></svg><svg viewBox="0 0 20 20" id="briefcase" xmlns="http://www.w3.org/2000/svg"><path d="M18.5 5H14V3.5c0-.827-.673-1.5-1.5-1.5h-5C6.673 2 6 2.673 6 3.5V5H1.5C.673 5 0 5.673 0 6.5v11c0 .827.673 1.5 1.5 1.5h17c.827 0 1.5-.673 1.5-1.5v-11c0-.827-.673-1.5-1.5-1.5zM7 3.5a.5.5 0 01.5-.5h5a.5.5 0 01.5.5V5H7V3.5zM1.5 6h17a.5.5 0 01.5.5V14h-2v-.5a.5.5 0 00-.5-.5h-2a.5.5 0 00-.5.5v.5H6v-.5a.5.5 0 00-.5-.5h-2a.5.5 0 00-.5.5v.5H1V6.5a.5.5 0 01.5-.5zM16 14v1h-1v-1h1zM5 14v1H4v-1h1zm13.5 4h-17a.5.5 0 01-.5-.5V15h2v.5a.5.5 0 00.5.5h2a.5.5 0 00.5-.5V15h8v.5a.5.5 0 00.5.5h2a.5.5 0 00.5-.5V15h2v2.5a.5.5 0 01-.5.5z"/></svg><svg viewBox="0 0 20 20" id="bubble" xmlns="http://www.w3.org/2000/svg"><path d="M.5 19a.5.5 0 01-.257-.929 6.211 6.211 0 002.641-3.179C1.046 13.485 0 11.538 0 9.5c0-1.029.258-2.026.768-2.964.486-.894 1.18-1.695 2.061-2.381C4.616 2.765 6.985 1.999 9.5 1.999s4.884.766 6.671 2.156c.881.685 1.575 1.486 2.061 2.381.51.937.768 1.934.768 2.964s-.258 2.026-.768 2.964c-.486.894-1.18 1.695-2.061 2.381-1.787 1.39-4.156 2.156-6.671 2.156-1.033 0-2.047-.129-3.016-.385a20.74 20.74 0 01-2.189 1.27c-1.488.74-2.764 1.115-3.794 1.115zm9-16C4.813 3 1 5.916 1 9.5c0 1.815 1.005 3.562 2.756 4.792.172.121.25.336.196.539-.117.436-.515 1.633-1.58 2.788 1.302-.456 2.704-1.247 3.739-1.959a.499.499 0 01.421-.069C7.48 15.862 8.479 16 9.5 16c4.687 0 8.5-2.916 8.5-6.5S14.187 3 9.5 3z"/></svg><svg viewBox="0 0 20 20" id="cart" xmlns="http://www.w3.org/2000/svg"><path d="M8 20c-1.103 0-2-.897-2-2s.897-2 2-2 2 .897 2 2-.897 2-2 2zm0-3c-.551 0-1 .449-1 1s.449 1 1 1 1-.449 1-1-.449-1-1-1zM15 20c-1.103 0-2-.897-2-2s.897-2 2-2 2 .897 2 2-.897 2-2 2zm0-3c-.551 0-1 .449-1 1s.449 1 1 1 1-.449 1-1-.449-1-1-1zM17.539 4.467A1.351 1.351 0 0016.5 4H4.257l-.099-.596A1.718 1.718 0 002.5 2h-1a.5.5 0 000 1h1c.307 0 .621.266.671.569l1.671 10.027A1.718 1.718 0 006.5 15h10a.5.5 0 000-1h-10a.724.724 0 01-.671-.569l-.247-1.48 9.965-.867c.775-.067 1.483-.721 1.611-1.489l.671-4.027a1.354 1.354 0 00-.289-1.102zm-.697.937l-.671 4.027c-.053.316-.391.629-.711.657l-10.043.873-.994-5.962h12.076c.117 0 .215.04.276.113s.085.176.066.291z"/></svg><svg viewBox="0 0 20 20" id="chart-bars" xmlns="http://www.w3.org/2000/svg"><path d="M17.5 20h-16C.673 20 0 19.327 0 18.5v-16C0 1.673.673 1 1.5 1h16c.827 0 1.5.673 1.5 1.5v16c0 .827-.673 1.5-1.5 1.5zM1.5 2a.5.5 0 00-.5.5v16a.5.5 0 00.5.5h16a.5.5 0 00.5-.5v-16a.5.5 0 00-.5-.5h-16z"/><path d="M6.5 17h-2a.5.5 0 01-.5-.5v-9a.5.5 0 01.5-.5h2a.5.5 0 01.5.5v9a.5.5 0 01-.5.5zM5 16h1V8H5v8zM10.5 17h-2a.5.5 0 01-.5-.5v-12a.5.5 0 01.5-.5h2a.5.5 0 01.5.5v12a.5.5 0 01-.5.5zM9 16h1V5H9v11zM14.5 17h-2a.5.5 0 01-.5-.5v-5a.5.5 0 01.5-.5h2a.5.5 0 01.5.5v5a.5.5 0 01-.5.5zM13 16h1v-4h-1v4z"/></svg><svg viewBox="0 0 28 28" fill="#fff" id="check" xmlns="http://www.w3.org/2000/svg"><path d="M26.109 8.844c0 .391-.156.781-.438 1.062L12.233 23.344c-.281.281-.672.438-1.062.438s-.781-.156-1.062-.438l-7.781-7.781c-.281-.281-.438-.672-.438-1.062s.156-.781.438-1.062l2.125-2.125c.281-.281.672-.438 1.062-.438s.781.156 1.062.438l4.594 4.609 10.25-10.266c.281-.281.672-.438 1.062-.438s.781.156 1.062.438l2.125 2.125c.281.281.438.672.438 1.062z"/></svg><svg viewBox="0 0 20 20" id="chevron-down" xmlns="http://www.w3.org/2000/svg"><path d="M0 6a.5.5 0 01.853-.354l8.646 8.646 8.646-8.646a.5.5 0 01.707.707l-9 9a.5.5 0 01-.707 0l-9-9a.498.498 0 01-.146-.354z"/></svg><svg viewBox="0 0 20 20" id="chevron-left" xmlns="http://www.w3.org/2000/svg"><path d="M14 20a.5.5 0 00.354-.853l-8.646-8.646 8.646-8.646a.5.5 0 00-.707-.707l-9 9a.5.5 0 000 .707l9 9a.498.498 0 00.354.146z"/></svg><svg viewBox="0 0 20 20" id="chevron-right" xmlns="http://www.w3.org/2000/svg"><path d="M5 20a.5.5 0 01-.354-.853l8.646-8.646-8.646-8.646a.5.5 0 01.707-.707l9 9a.5.5 0 010 .707l-9 9a.498.498 0 01-.354.146z"/></svg><svg viewBox="0 0 20 20" id="clock" xmlns="http://www.w3.org/2000/svg"><path d="M16.32 17.113A9.436 9.436 0 0019 10.5c0-2.37-.862-4.608-2.438-6.355l.688-.688.647.646a.497.497 0 00.706 0 .5.5 0 000-.707l-2-2a.5.5 0 00-.707.707l.647.646-.688.688C14.108 1.861 11.87.999 9.5.999s-4.608.862-6.355 2.438l-.688-.688.646-.646a.5.5 0 00-.707-.707l-2 2a.5.5 0 00.708.707l.646-.646.688.688A9.431 9.431 0 000 10.5c0 2.489.951 4.831 2.68 6.613L.646 19.147a.5.5 0 00.708.707l2.06-2.059c1.705 1.428 3.836 2.206 6.087 2.206s4.382-.778 6.087-2.206l2.059 2.059a.5.5 0 10.707-.707l-2.034-2.034zM1 10.5C1 5.813 4.813 2 9.5 2S18 5.813 18 10.5c0 4.687-3.813 8.5-8.5 8.5S1 15.187 1 10.5z"/><path d="M15.129 7.25a.5.5 0 00-.683-.183l-4.92 2.841-3.835-2.685a.5.5 0 00-.573.819l4.096 2.868.002.002a.401.401 0 00.027.017l.006.004.027.015.006.003.031.014.019.007.013.005.021.006.012.003.022.005a.05.05 0 00.012.002l.021.003.015.002.018.002.027.001H9.5a.525.525 0 00.056-.003h.003a.341.341 0 00.054-.01l.005-.001a.413.413 0 00.104-.038l.011-.006.016-.008 5.196-3a.5.5 0 00.183-.683z"/></svg><svg viewBox="0 0 20 20" id="cloud-download" xmlns="http://www.w3.org/2000/svg"><path d="M16.006 16H13.5a.5.5 0 010-1h2.506C17.657 15 19 13.657 19 12.006a2.997 2.997 0 00-4.017-2.815.5.5 0 01-.533-.814A2.002 2.002 0 0013 5c-.642 0-1.229.297-1.61.814a1.99 1.99 0 00-.386 1.061.501.501 0 01-.909.256l-.005-.007a5.008 5.008 0 00-4.091-2.123c-2.757 0-5 2.243-5 5s2.243 5 5 5h1.5a.5.5 0 010 1h-1.5c-3.308 0-6-2.692-6-6s2.692-6 6-6c1.603 0 3.137.643 4.261 1.775a3.002 3.002 0 015.563 2.242A3.999 3.999 0 0120 12.008a3.999 3.999 0 01-3.994 3.994z"/><path d="M12.854 13.146a.5.5 0 00-.707 0l-1.146 1.146v-3.793a.5.5 0 00-1 0v3.793l-1.146-1.146a.5.5 0 00-.707.707l2 2a.498.498 0 00.708 0l2-2a.5.5 0 000-.707z"/></svg><svg viewBox="0 0 20 20" id="cog" xmlns="http://www.w3.org/2000/svg"><path d="M7.631 19.702a.493.493 0 01-.125-.016 9.952 9.952 0 01-2.564-1.059.5.5 0 01-.186-.671 2.002 2.002 0 00-2.714-2.714.5.5 0 01-.671-.186 9.967 9.967 0 01-1.059-2.564.5.5 0 01.325-.598 1.999 1.999 0 000-3.79.5.5 0 01-.325-.598 9.952 9.952 0 011.059-2.564.5.5 0 01.671-.186 2.001 2.001 0 002.714-2.714.5.5 0 01.186-.671A9.967 9.967 0 017.506.312a.5.5 0 01.598.325 1.999 1.999 0 003.79 0 .5.5 0 01.598-.325 9.952 9.952 0 012.564 1.059.5.5 0 01.186.671 2.002 2.002 0 002.714 2.714.5.5 0 01.671.186 9.967 9.967 0 011.059 2.564.5.5 0 01-.325.598 1.999 1.999 0 000 3.79.5.5 0 01.325.598 9.952 9.952 0 01-1.059 2.564.5.5 0 01-.671.186 2.002 2.002 0 00-2.714 2.714.5.5 0 01-.186.671 9.967 9.967 0 01-2.564 1.059.5.5 0 01-.598-.325 1.999 1.999 0 00-3.79 0 .502.502 0 01-.474.341zM10 17a3 3 0 012.655 1.602 9.019 9.019 0 001.51-.622 3.004 3.004 0 013.816-3.816c.253-.484.462-.989.622-1.51a2.999 2.999 0 010-5.31 9.019 9.019 0 00-.622-1.51 3.004 3.004 0 01-3.816-3.816 8.901 8.901 0 00-1.51-.622 2.999 2.999 0 01-5.31 0c-.52.16-1.026.369-1.51.622a3.004 3.004 0 01-3.816 3.816 8.901 8.901 0 00-.622 1.51 2.999 2.999 0 010 5.31c.16.52.369 1.026.622 1.51a3.004 3.004 0 013.816 3.816c.484.253.989.462 1.51.622A2.998 2.998 0 0110 17z"/><path d="M10 13c-1.654 0-3-1.346-3-3s1.346-3 3-3 3 1.346 3 3-1.346 3-3 3zm0-5c-1.103 0-2 .897-2 2s.897 2 2 2 2-.897 2-2-.897-2-2-2z"/></svg><svg viewBox="0 0 20 20" id="dice" xmlns="http://www.w3.org/2000/svg"><path d="M5.5 16c-.827 0-1.5-.673-1.5-1.5S4.673 13 5.5 13s1.5.673 1.5 1.5S6.327 16 5.5 16zm0-2a.5.5 0 100 1 .5.5 0 000-1zM5.5 12c-.827 0-1.5-.673-1.5-1.5S4.673 9 5.5 9 7 9.673 7 10.5 6.327 12 5.5 12zm0-2a.5.5 0 100 1 .5.5 0 000-1zM5.5 8C4.673 8 4 7.327 4 6.5S4.673 5 5.5 5 7 5.673 7 6.5 6.327 8 5.5 8zm0-2a.5.5 0 100 1 .5.5 0 000-1zM13.5 8c-.827 0-1.5-.673-1.5-1.5S12.673 5 13.5 5s1.5.673 1.5 1.5S14.327 8 13.5 8zm0-2a.5.5 0 100 1 .5.5 0 000-1zM13.5 12c-.827 0-1.5-.673-1.5-1.5S12.673 9 13.5 9s1.5.673 1.5 1.5-.673 1.5-1.5 1.5zm0-2a.5.5 0 100 1 .5.5 0 000-1zM13.5 16c-.827 0-1.5-.673-1.5-1.5s.673-1.5 1.5-1.5 1.5.673 1.5 1.5-.673 1.5-1.5 1.5zm0-2a.5.5 0 100 1 .5.5 0 000-1z"/><path d="M15.5 19h-12A2.503 2.503 0 011 16.5v-12C1 3.122 2.122 2 3.5 2h12C16.878 2 18 3.122 18 4.5v12c0 1.378-1.122 2.5-2.5 2.5zM3.5 3C2.673 3 2 3.673 2 4.5v12c0 .827.673 1.5 1.5 1.5h12c.827 0 1.5-.673 1.5-1.5v-12c0-.827-.673-1.5-1.5-1.5h-12z"/></svg><svg aria-hidden="true" data-prefix="fab" data-icon="dribbble" class="aqsvg-inline--fa aqfa-dribbble aqfa-w-16" viewBox="0 0 512 512" id="dribbble" xmlns="http://www.w3.org/2000/svg"><path fill="currentColor" d="M256 8C119.252 8 8 119.252 8 256s111.252 248 248 248 248-111.252 248-248S392.748 8 256 8zm163.97 114.366c29.503 36.046 47.369 81.957 47.835 131.955-6.984-1.477-77.018-15.682-147.502-6.818-5.752-14.041-11.181-26.393-18.617-41.614 78.321-31.977 113.818-77.482 118.284-83.523zM396.421 97.87c-3.81 5.427-35.697 48.286-111.021 76.519-34.712-63.776-73.185-116.168-79.04-124.008 67.176-16.193 137.966 1.27 190.061 47.489zm-230.48-33.25c5.585 7.659 43.438 60.116 78.537 122.509-99.087 26.313-186.36 25.934-195.834 25.809C62.38 147.205 106.678 92.573 165.941 64.62zM44.17 256.323c0-2.166.043-4.322.108-6.473 9.268.19 111.92 1.513 217.706-30.146 6.064 11.868 11.857 23.915 17.174 35.949-76.599 21.575-146.194 83.527-180.531 142.306C64.794 360.405 44.17 310.73 44.17 256.323zm81.807 167.113c22.127-45.233 82.178-103.622 167.579-132.756 29.74 77.283 42.039 142.053 45.189 160.638-68.112 29.013-150.015 21.053-212.768-27.882zm248.38 8.489c-2.171-12.886-13.446-74.897-41.152-151.033 66.38-10.626 124.7 6.768 131.947 9.055-9.442 58.941-43.273 109.844-90.795 141.978z"/></svg><svg viewBox="0 0 20 20" id="envelope" xmlns="http://www.w3.org/2000/svg"><path d="M17.5 6h-16C.673 6 0 6.673 0 7.5v9c0 .827.673 1.5 1.5 1.5h16c.827 0 1.5-.673 1.5-1.5v-9c0-.827-.673-1.5-1.5-1.5zm0 1c.03 0 .058.003.087.008l-7.532 5.021c-.29.193-.819.193-1.109 0L1.414 7.008A.494.494 0 011.501 7h16zm0 10h-16a.5.5 0 01-.5-.5V7.934l7.391 4.927c.311.207.71.311 1.109.311s.798-.104 1.109-.311L18 7.934V16.5a.5.5 0 01-.5.5z"/></svg><svg viewBox="0 0 20 20" id="exit" xmlns="http://www.w3.org/2000/svg"><path d="M11.5 8a.5.5 0 00.5-.5v-4c0-.827-.673-1.5-1.5-1.5h-9C.673 2 0 2.673 0 3.5v12c0 .746.537 1.56 1.222 1.853l5.162 2.212c.178.076.359.114.532.114.213 0 .416-.058.589-.172.314-.207.495-.575.495-1.008v-1.5h2.5c.827 0 1.5-.673 1.5-1.5v-4a.5.5 0 00-1 0v4a.5.5 0 01-.5.5H8v-9.5c0-.746-.537-1.56-1.222-1.853L2.936 2.999H10.5a.5.5 0 01.5.5v4a.5.5 0 00.5.5zM6.384 5.566c.322.138.616.584.616.934v12c0 .104-.028.162-.045.173s-.081.014-.177-.027l-5.162-2.212C1.294 16.296 1 15.851 1 15.5v-12c0-.079.018-.153.051-.22l5.333 2.286z"/><path d="M18.354 9.146l-3-3a.5.5 0 00-.707.707l2.146 2.146H10.5a.5.5 0 000 1h6.293l-2.146 2.146a.5.5 0 00.708.707l3-3a.5.5 0 000-.707z"/></svg><svg viewBox="0 0 20 20" id="eye" xmlns="http://www.w3.org/2000/svg"><path d="M19.872 10.166c-.047-.053-1.182-1.305-2.956-2.572-1.047-.748-2.1-1.344-3.13-1.773-1.305-.544-2.579-.82-3.786-.82s-2.481.276-3.786.82c-1.03.429-2.083 1.026-3.13 1.773C1.31 8.861.175 10.114.128 10.166a.5.5 0 000 .669c.047.053 1.182 1.305 2.956 2.572 1.047.748 2.1 1.344 3.13 1.773 1.305.544 2.579.82 3.786.82s2.481-.276 3.786-.82c1.03-.429 2.083-1.026 3.13-1.773 1.774-1.267 2.909-2.52 2.956-2.572a.5.5 0 000-.669zm-7.298-3.728A3.983 3.983 0 0114 9.5c0 2.206-1.794 4-4 4s-4-1.794-4-4c0-1.188.519-2.299 1.426-3.062C8.248 6.17 9.117 6 10 6s1.752.17 2.574.438zm3.743 6.168C14.784 13.698 12.444 15 10 15s-4.784-1.302-6.317-2.394A20.014 20.014 0 011.194 10.5a20.102 20.102 0 012.489-2.106 16.19 16.19 0 011.85-1.145A5.006 5.006 0 0010 14.5a5.006 5.006 0 004.467-7.251c.694.365 1.32.768 1.85 1.145a20.014 20.014 0 012.489 2.106 20.102 20.102 0 01-2.489 2.106z"/></svg><svg aria-hidden="true" data-prefix="fab" data-icon="facebook-f" class="ausvg-inline--fa aufa-facebook-f aufa-w-10" viewBox="0 0 320 512" id="facebook" xmlns="http://www.w3.org/2000/svg"><path fill="currentColor" d="M279.14 288l14.22-92.66h-88.91v-60.13c0-25.35 12.42-50.06 52.24-50.06h40.42V6.26S260.43 0 225.36 0c-73.22 0-121.08 44.38-121.08 124.72v70.62H22.89V288h81.39v224h100.17V288z"/></svg><svg aria-hidden="true" data-prefix="fab" data-icon="google" class="avsvg-inline--fa avfa-google avfa-w-16" viewBox="0 0 488 512" id="google" xmlns="http://www.w3.org/2000/svg"><path fill="currentColor" d="M488 261.8C488 403.3 391.1 504 248 504 110.8 504 0 393.2 0 256S110.8 8 248 8c66.8 0 123 24.5 166.3 64.9l-67.5 64.9C258.5 52.6 94.3 116.6 94.3 256c0 86.5 69.1 156.6 153.7 156.6 98.2 0 135-70.4 140.8-106.9H248v-85.3h236.1c2.3 12.7 3.9 24.9 3.9 41.4z"/></svg><svg viewBox="0 0 20 20" id="heart" xmlns="http://www.w3.org/2000/svg"><path d="M9.5 19a.5.5 0 01-.243-.063c-.094-.052-2.326-1.301-4.592-3.347-1.341-1.21-2.411-2.448-3.183-3.68C.498 10.339 0 8.771 0 7.25A5.256 5.256 0 015.25 2c.98 0 2.021.367 2.931 1.034.532.39.985.86 1.319 1.359a5.522 5.522 0 011.319-1.359C11.729 2.367 12.77 2 13.75 2A5.256 5.256 0 0119 7.25c0 1.521-.499 3.089-1.482 4.66-.771 1.232-1.842 2.47-3.182 3.68-2.266 2.046-4.498 3.295-4.592 3.347a.5.5 0 01-.243.063zM5.25 3A4.255 4.255 0 001 7.25c0 3.04 2.35 5.802 4.321 7.585A27.738 27.738 0 009.5 17.922a27.738 27.738 0 004.179-3.087C15.65 13.053 18 10.29 18 7.25A4.255 4.255 0 0013.75 3c-1.703 0-3.357 1.401-3.776 2.658a.5.5 0 01-.948 0C8.607 4.401 6.953 3 5.25 3z"/></svg><svg viewBox="0 0 20 20" id="home" xmlns="http://www.w3.org/2000/svg"><path d="M19.871 12.165l-8.829-9.758A1.392 1.392 0 0010 1.937c-.397 0-.767.167-1.042.47L.129 12.165a.5.5 0 00.741.67l2.129-2.353V18.5c0 .827.673 1.5 1.5 1.5h11c.827 0 1.5-.673 1.5-1.5v-8.018l2.129 2.353a.499.499 0 10.741-.671zM12 19H8v-4.5a.5.5 0 01.5-.5h3a.5.5 0 01.5.5V19zm4-.5a.5.5 0 01-.5.5H13v-4.5c0-.827-.673-1.5-1.5-1.5h-3c-.827 0-1.5.673-1.5 1.5V19H4.5a.5.5 0 01-.5-.5V9.377l5.7-6.3c.082-.091.189-.141.3-.141s.218.05.3.141l5.7 6.3V18.5z"/></svg><svg viewBox="0 0 100 100" id="icon-buy" xmlns="http://www.w3.org/2000/svg"><path fill="#fff" d="M99.308 90.792a2.087 2.087 0 010 2.95l-5.64 5.644a2.083 2.083 0 01-2.947 0L79.703 88.359l-4.992 4.997a2.091 2.091 0 01-.72.467 50.49 50.49 0 01-4.103 2.002h.899a2.085 2.085 0 010 4.171h-41.67a2.085 2.085 0 110-4.17h.772a49.574 49.574 0 01-4.94-2.497C13.43 86.673 5.176 75.877 1.71 62.93-1.757 49.982-.003 36.5 6.649 24.97 13.3 13.44 24.089 5.179 37.026 1.71 49.962-1.76 63.432-.003 74.953 6.653c11.405 6.59 19.625 17.263 23.148 30.054 3.518 12.776 1.933 26.142-4.465 37.635-.153.275-.36.5-.6.672l-4.747 4.752zm-28.518.005l-6.363-23.765a2.084 2.084 0 112.552-2.553l23.789 6.378c10.99-21.529 3.18-48.414-17.898-60.593-10.558-6.1-22.905-7.707-34.767-4.526-11.862 3.18-21.751 10.75-27.846 21.316C4.16 37.62 2.555 49.977 5.733 61.849c3.179 11.871 10.743 21.769 21.3 27.869 13.332 7.704 29.965 8.08 43.757 1.079zm24.098 1.47L83.87 81.239a2.085 2.085 0 010-2.949l3.913-3.916-18.397-4.933 4.93 18.411 3.914-3.917a2.086 2.086 0 012.946 0l11.018 11.028zM20.934 59.57c-.505-.495-.757-1.297-.757-2.406V42.61c0-2.18 1.039-3.268 3.117-3.268h3.472c1.128 0 2.207.06 3.236.178 1.702.177 2.958.678 3.77 1.5.81.821 1.216 1.996 1.216 3.52 0 1.286-.247 2.317-.742 3.09-.494.771-1.276 1.337-2.345 1.693 1.247.297 2.182.836 2.805 1.619.624.78.935 1.876.935 3.282 0 2.812-1 4.615-2.998 5.406-1.148.456-3.166.684-6.055.684h-3.295c-1.068 0-1.855-.248-2.359-.743zm3.339-15.864v4.16h2.73c1.267 0 2.108-.09 2.523-.268.89-.376 1.336-1.149 1.336-2.317 0-.773-.144-1.332-.43-1.678-.287-.347-.708-.608-1.262-.788-.435-.118-1.088-.178-1.959-.178h-2.047c-.594 0-.891.358-.891 1.07zm0 7.427v4.634c0 .397.084.685.252.863.168.177.46.267.876.267h2.196c1.128 0 1.94-.1 2.434-.297.95-.376 1.425-1.298 1.425-2.764 0-1.188-.505-1.99-1.514-2.405-.514-.198-1.435-.298-2.76-.298zm44.443 8.318V51.61l-6.53-10.695c-.258-.436-.386-.763-.386-.98 0-.257.128-.447.386-.565.218-.079 1.326-.119 3.324-.119.474 0 .87.278 1.187.832 1.9 3.15 3.305 5.605 4.215 7.368.752-1.446 2.167-3.882 4.244-7.308.337-.595.743-.892 1.217-.892 1.702 0 2.701.05 2.998.15.238.098.356.267.357.504 0 .22-.119.535-.356.951l-6.53 10.634v7.962c0 .277-.08.495-.238.653a.8.8 0 01-.594.238h-2.493c-.535 0-.802-.297-.802-.89zm-11.121-19.31v11.794c0 1.584-.06 2.812-.178 3.684-.119.871-.356 1.615-.713 2.229-1.167 1.92-3.64 2.88-7.42 2.88-3.839 0-6.233-1.029-7.183-3.089-.435-.95-.653-2.832-.653-5.644V40.143c0-.555.267-.832.802-.832h2.612c.455 0 .682.277.682.832v12.744c0 1.564.208 2.634.623 3.208.554.792 1.673 1.188 3.355 1.188 1.82 0 2.988-.377 3.502-1.129.435-.613.653-1.682.653-3.207V40.143c0-.555.267-.832.801-.832h2.404c.475 0 .713.278.713.832zM41.719 88.8a2.085 2.085 0 01-2.552 1.474C24.833 86.428 13.543 75.13 9.702 60.785a2.084 2.084 0 114.025-1.08c3.457 12.91 13.618 23.08 26.519 26.54a2.087 2.087 0 011.473 2.554zm17.94-75.062a2.086 2.086 0 011.077-4.028c14.334 3.843 25.625 15.14 29.465 29.486a2.087 2.087 0 01-2.013 2.627c-.92 0-1.762-.614-2.012-1.546-3.456-12.911-13.618-23.08-26.518-26.54zm-8.94 75.92a2.085 2.085 0 01-2.082 2.015l-.072-.001a43.201 43.201 0 01-1.73-.094 2.084 2.084 0 01-1.922-2.235 2.084 2.084 0 012.233-1.924 38.33 38.33 0 001.56.084 2.085 2.085 0 012.012 2.155zm-1.533-79.335a2.08 2.08 0 012.154-2.01 41.57 41.57 0 011.73.092 2.085 2.085 0 01-.313 4.159 38.826 38.826 0 00-1.561-.084 2.086 2.086 0 01-2.01-2.156z"/></svg><svg viewBox="0 0 13 10" id="icon-check" xmlns="http://www.w3.org/2000/svg"><path d="M.15 5.502a.54.54 0 01-.15-.35c0-.1.05-.249.15-.349l.7-.7c.2-.2.5-.2.7 0l.05.05 2.747 2.948c.1.1.25.1.35 0L11.393.156h.05c.2-.2.5-.2.7 0l.7.7c.2.2.2.5 0 .7L4.847 9.848c-.1.1-.2.15-.35.15-.15 0-.25-.05-.35-.15L.25 5.652z"/></svg><svg viewBox="0 0 13 10" id="icon-chevron" xmlns="http://www.w3.org/2000/svg"><path d="M.15 5.502a.54.54 0 01-.15-.35c0-.1.05-.249.15-.349l.7-.7c.2-.2.5-.2.7 0l.05.05 2.747 2.948c.1.1.25.1.35 0L11.393.156h.05c.2-.2.5-.2.7 0l.7.7c.2.2.2.5 0 .7L4.847 9.848c-.1.1-.2.15-.35.15-.15 0-.25-.05-.35-.15L.25 5.652z"/></svg><svg viewBox="0 0 5 20" id="icon-dots-vertical" xmlns="http://www.w3.org/2000/svg"><path fill="#a3b1c4" d="M.012 17.932c.038-1.104 1.06-1.971 2.284-1.938 1.223.034 2.185.956 2.147 2.06-.037 1.104-1.06 1.97-2.283 1.938-1.224-.035-2.186-.957-2.148-2.06zm.272-7.994C.322 8.833 1.344 7.967 2.568 8c1.224.034 2.185.956 2.148 2.06-.038 1.104-1.06 1.971-2.284 1.938-1.224-.035-2.185-.957-2.148-2.06zm.273-7.994C.594.839 1.617-.028 2.84.006c1.224.033 2.186.956 2.148 2.06-.038 1.103-1.06 1.971-2.284 1.937C1.481 3.969.52 3.047.557 1.943z"/></svg><svg viewBox="0 0 10 10" id="icon-ellipse" xmlns="http://www.w3.org/2000/svg"><defs><clipPath id="bca"><path fill="#fff" d="M5 0a5 5 0 110 10A5 5 0 015 0z"/></clipPath></defs><path fill="none" stroke="#747b86" stroke-miterlimit="20" stroke-width="2" d="M5 0a5 5 0 110 10A5 5 0 015 0z" clip-path="url(#bca)"/></svg><svg viewBox="0 0 20 20" id="icon-grid" xmlns="http://www.w3.org/2000/svg"><path fill="#0674ec" d="M10.415 12.358v1.573a.417.417 0 01-.415.418.417.417 0 01-.415-.418v-1.573c0-.23.186-.418.415-.418.23 0 .415.187.415.418zm0-6.29v1.573a.417.417 0 01-.415.418.417.417 0 01-.415-.418V6.068c0-.23.186-.418.415-.418.23 0 .415.187.415.418zm0 9.435v1.572a.417.417 0 01-.415.42.417.417 0 01-.415-.42v-1.572a.416.416 0 11.83 0zm0-12.58v1.573a.417.417 0 01-.415.418.417.417 0 01-.415-.418V2.923a.416.416 0 11.83 0zM4.953 10a.417.417 0 01-.416.418h-1.56A.417.417 0 012.56 10c0-.231.186-.42.415-.42h1.561c.23 0 .416.189.416.42zm3.121 0a.417.417 0 01-.415.418H6.098A.417.417 0 015.682 10c0-.231.186-.42.416-.42h1.56c.23 0 .416.189.416.42zm3.122 0a.417.417 0 01-.416.418h-.365v.368c0 .23-.186.418-.415.418a.417.417 0 01-.415-.418v-.368h-.366A.417.417 0 018.804 10c0-.231.186-.42.415-.42h.366v-.367c0-.23.186-.418.415-.418.23 0 .415.187.415.418v.368h.365c.23 0 .416.188.416.419zm6.243 0a.417.417 0 01-.415.418h-1.561a.417.417 0 01-.416-.418c0-.231.186-.42.416-.42h1.56c.23 0 .416.189.416.42zm-3.122 0a.417.417 0 01-.415.418h-1.56a.417.417 0 01-.416-.418c0-.231.186-.42.415-.42h1.561c.23 0 .415.189.415.42zM19.941.514v18.971a.417.417 0 01-.415.418H.474a.417.417 0 01-.415-.418V.514c0-.231.186-.419.415-.419h19.052c.23 0 .415.188.415.419zm-.83.419h-8.696v.418a.417.417 0 01-.415.418.417.417 0 01-.415-.418V.933H.889V9.58h.527c.23 0 .415.188.415.419a.417.417 0 01-.415.418H.889v8.648h8.696v-.418a.416.416 0 11.83 0v.418h8.695v-8.648h-.526A.417.417 0 0118.17 10c0-.231.186-.42.415-.42h.526z"/></svg><svg viewBox="0 0 20 19" id="icon-list" xmlns="http://www.w3.org/2000/svg"><path fill="#747b86" d="M20.016 10.436a.29.29 0 01-.293.288H7.51a.29.29 0 01-.293-.288.29.29 0 01.293-.287h12.212a.29.29 0 01.293.287zm0-1.842a.29.29 0 01-.293.288H7.51a.29.29 0 01-.293-.288.29.29 0 01.293-.287h12.212a.29.29 0 01.293.287zm-14.403-.92v3.684a.912.912 0 01-.92.901H.936a.912.912 0 01-.92-.901V7.674c0-.498.413-.902.92-.902h3.757c.508 0 .92.404.92.902zm-.587 0a.33.33 0 00-.333-.327H.936a.33.33 0 00-.333.327v3.684c0 .18.15.326.333.326h3.757a.33.33 0 00.333-.326zm14.99-3.991a.29.29 0 01-.293.287H7.51a.29.29 0 01-.293-.287.29.29 0 01.293-.288h12.212a.29.29 0 01.293.288zM7.218 1.84a.29.29 0 01.293-.288h12.212a.29.29 0 01.293.288.291.291 0 01-.293.288H7.51a.291.291 0 01-.293-.288zM5.613.92v3.684a.912.912 0 01-.92.901H.936a.912.912 0 01-.92-.901V.92c0-.497.413-.902.92-.902h3.757c.508 0 .92.405.92.902zm-.587 0a.33.33 0 00-.333-.326H.936A.33.33 0 00.603.92v3.684c0 .18.15.326.333.326h3.757a.33.33 0 00.333-.326zm14.99 16.27a.29.29 0 01-.293.288H7.51a.29.29 0 01-.293-.288.29.29 0 01.293-.288h12.212a.29.29 0 01.293.288zm0-1.842a.29.29 0 01-.293.288H7.51a.29.29 0 01-.293-.288.29.29 0 01.293-.287h12.212a.29.29 0 01.293.287zm-14.403-.92v3.683a.912.912 0 01-.92.902H.936a.912.912 0 01-.92-.902v-3.684c0-.497.413-.901.92-.901h3.757c.508 0 .92.404.92.901zm-.587 0a.33.33 0 00-.333-.327H.936a.33.33 0 00-.333.326v3.684c0 .18.15.326.333.326h3.757a.33.33 0 00.333-.326z"/></svg><svg viewBox="0 0 50 50" id="icon-map-marker" xmlns="http://www.w3.org/2000/svg"><path fill="#0674ec" d="M2.085 47.988a.834.834 0 010 1.179l-.588.589a.827.827 0 01-1.174 0 .834.834 0 010-1.179l.587-.589a.828.828 0 011.175 0zm11.2-4.655c.46 0 .831.373.831.834 0 .46-.372.833-.83.833h-1.513a.832.832 0 01-.83-.833c0-.461.371-.834.83-.834zm4.537 0c.459 0 .83.373.83.834 0 .46-.371.833-.83.833H16.31a.832.832 0 01-.83-.833c0-.461.372-.834.83-.834zm-9.074 0c.459 0 .831.373.831.834 0 .46-.372.833-.83.833H7.236a.832.832 0 01-.831-.833c0-.461.372-.834.83-.834zM5.292 45.95l-1.07 1.073a.827.827 0 01-1.174 0 .834.834 0 010-1.179l1.07-1.072a.828.828 0 011.174 0 .834.834 0 010 1.178zm16.385-2.616c.459 0 .831.373.831.834 0 .46-.372.833-.83.833h-.831a.832.832 0 01-.831-.833c0-.461.372-.834.83-.834zM.322 44.554a.834.834 0 010-1.178l3.22-3.23a3.33 3.33 0 01.507-.418 1.95 1.95 0 01.214-.121l.079-.044a2.44 2.44 0 01.284-.144c.084-.035.177-.063.27-.088l.11-.033c.075-.025.151-.048.231-.066.226-.044.445-.065.657-.065h12.46a.83.83 0 01.831.833c0 .46-.372.833-.83.833H5.895c-.11 0-.22.013-.329.034l-.31.095a.77.77 0 00-.089.049l-.16.086a1.509 1.509 0 00-.29.227l-3.22 3.23a.827.827 0 01-1.175 0zm47.594-4.21a.834.834 0 010-1.177l.587-.59a.828.828 0 011.175 0 .834.834 0 010 1.179l-.588.589a.827.827 0 01-1.174 0zm-1.334 1.34a.834.834 0 010 1.178l-1.255 1.258a.828.828 0 01-1.174 0 .834.834 0 010-1.178l1.254-1.259a.828.828 0 011.175 0zm-10.446 1.65c.458 0 .83.372.83.833 0 .46-.372.833-.83.833h-1.774a.832.832 0 01-.83-.833c0-.461.371-.834.83-.834zm5.32 0c.46 0 .83.372.83.833a.83.83 0 01-.83.833h-1.773a.831.831 0 01-.831-.833c0-.461.371-.834.83-.834zm-10.641 0c.458 0 .83.372.83.833 0 .46-.371.833-.83.833h-.83a.832.832 0 01-.831-.833c0-.461.372-.834.83-.834zm18.863.445a.834.834 0 010 1.178l-3.22 3.23a3.301 3.301 0 01-.51.42 1.86 1.86 0 01-.206.116l-.082.045a2.502 2.502 0 01-.28.143 2.24 2.24 0 01-.278.092l-.104.031c-.08.027-.16.05-.245.068a3.246 3.246 0 01-.647.065H7.22l-.805.649a.828.828 0 01-1.167-.127.835.835 0 01.126-1.172l1.26-1.017h37.473c.109 0 .217-.012.322-.033l.231-.07c.028-.008.055-.014.08-.025.034-.013.066-.034.1-.052l.156-.085c.125-.078.21-.148.288-.226l3.22-3.23a.829.829 0 011.175 0zm-16.371-4.612h9.423l2.25-2.256a.828.828 0 011.174 0 .834.834 0 010 1.178l-2.736 2.744H33.307a.832.832 0 01-.83-.833c0-.461.372-.833.83-.833zM13.215 27.14c-4.761-6.367-4.07-16.875 1.499-22.46A15.801 15.801 0 0125.978 0c4.255 0 8.255 1.662 11.264 4.682 5.567 5.584 6.26 16.091 1.48 22.485L25.978 45.63zm7.095-11.308c0 3.216 2.608 5.833 5.815 5.833 3.206 0 5.815-2.617 5.815-5.833S29.33 10 26.125 10c-3.207 0-5.815 2.617-5.815 5.833z"/></svg><svg viewBox="0 0 13 17" id="icon-psd" xmlns="http://www.w3.org/2000/svg"><path fill="#7347c1" d="M13 4.281V15.19c0 .999-.816 1.81-1.818 1.81H1.818A1.816 1.816 0 010 15.189V1.81C0 .81.816-.002 1.818-.002h6.863zM11.886 15.19l-.027-10.47-2.334.007a1.259 1.259 0 01-1.26-1.255v-2.37l-6.447.006a.703.703 0 00-.704.7V15.19c0 .388.316.702.704.702h9.364a.703.703 0 00.704-.702zM6.06 7.363c.295.233.494.615.494 1.066 0 .45-.151.832-.425 1.092-.357.334-.885.484-1.503.484-.137 0-.26-.007-.356-.02v1.644H3.235V7.091a8.546 8.546 0 011.413-.096c.645 0 1.104.123 1.413.368zm-.542 1.093c0-.423-.295-.676-.816-.676-.213 0-.357.02-.432.04v1.36c.089.02.199.027.35.027.555 0 .898-.28.898-.75zm4.701 1.815c0 .772-.597 1.427-1.866 1.427-.528 0-1.05-.137-1.31-.28l.213-.86c.281.144.713.287 1.16.287.48 0 .733-.199.733-.499 0-.287-.22-.45-.775-.649-.768-.266-1.269-.689-1.269-1.357 0-.785.659-1.386 1.75-1.386.52 0 .904.11 1.179.233l-.233.84a2.21 2.21 0 00-.968-.22c-.452 0-.672.205-.672.444 0 .293.261.423.858.649.816.3 1.2.722 1.2 1.371z"/></svg><svg viewBox="0 0 16 12" id="icon-reply" xmlns="http://www.w3.org/2000/svg"><path fill="#555" d="M16 11.666a.333.333 0 11-.667 0c0-1.416-3.2-2.93-8-2.997v2.33a1 1 0 01-1 1 .988.988 0 01-.673-.267l-.43-.398c-1.416-1.31-3.787-3.503-5-4.72A.862.862 0 010 6a.86.86 0 01.23-.615c1.213-1.217 3.584-3.41 5-4.72l.43-.398A.988.988 0 016.333 0a1 1 0 011 1v2.338C12.143 3.501 16 7.175 16 11.666zm-.844-1.576C14.364 6.616 11.008 4 7 4a.333.333 0 01-.334-.334V1a.334.334 0 00-.333-.334.323.323 0 00-.22.09l-.43.399C4.27 2.46 1.906 4.648.703 5.855c-.018.018-.037.07-.037.145 0 .074.019.126.037.144 1.203 1.207 3.567 3.394 4.98 4.7l.43.399c.044.041.119.09.22.09.184 0 .334-.15.334-.333V8.333C6.667 8.149 6.816 8 7 8c3.654 0 6.734.844 8.156 2.09z"/></svg><svg viewBox="0 0 120 101" id="icon-sell" xmlns="http://www.w3.org/2000/svg"><path fill="#fff" d="M120 10.278v54.907c0 5.54-4.507 10.046-10.047 10.046H75.97l3.412 10.24c3.228.837 5.62 3.773 5.62 7.26v2.5h7.5a2.5 2.5 0 010 5.001H27.5a2.5 2.5 0 010-5.001H35v-2.5c0-3.487 2.39-6.423 5.619-7.26l3.412-10.24H10.047C4.507 75.231 0 70.724 0 65.185V10.278C0 4.74 4.507.233 10.047.233h99.906C115.493.233 120 4.739 120 10.278zM77.5 90.231h-35a2.502 2.502 0 00-2.5 2.5v2.5h40v-2.5c0-1.379-1.121-2.5-2.5-2.5zm-3.469-5l-3.333-10H49.302l-3.333 10zm40.97-20.046V15.232H20.43a2.5 2.5 0 010-5h94.566a5.052 5.052 0 00-5.044-5H10.047A5.053 5.053 0 005 10.278v47.454h94.97a2.5 2.5 0 110 5H5v2.453a5.053 5.053 0 005.047 5.047h99.906A5.053 5.053 0 00115 65.185zM42.94 28.678a2.499 2.499 0 012.462-2.929v-.001h12.91a2.5 2.5 0 010 5h-9.927l1.38 7.738 14.771.983 1.305-10.29.757-5.973a2.49 2.49 0 012.48-2.178l5.529.027a2.49 2.49 0 01-.02 4.98l-3.326-.017-.48 3.785-1.6 12.624a2.489 2.489 0 01-2.636 2.171v.006l-19.063-1.269a2.496 2.496 0 01-2.292-2.06h-.003zm10.977 20.76a2.505 2.505 0 01-2.5 2.498 2.505 2.505 0 01-2.5-2.499 2.506 2.506 0 012.5-2.501c1.377 0 2.5 1.124 2.5 2.501zm12.744 0a2.505 2.505 0 01-2.5 2.498 2.505 2.505 0 01-2.5-2.499 2.506 2.506 0 012.5-2.501c1.377 0 2.5 1.124 2.5 2.501zM15.265 12.731a2.5 2.5 0 01-2.5 2.501h-1.123a2.501 2.501 0 010-5.001h1.123a2.5 2.5 0 012.5 2.5zm89.423 47.5a2.5 2.5 0 012.5-2.5h1.057a2.5 2.5 0 110 5h-1.057a2.5 2.5 0 01-2.5-2.5z"/></svg><svg viewBox="0 0 20 21" id="icon-share" xmlns="http://www.w3.org/2000/svg"><path d="M18.934 14.924A3.498 3.498 0 0120 17.442c0 .95-.379 1.844-1.066 2.516A3.664 3.664 0 0116.364 21a3.664 3.664 0 01-2.572-1.042 3.497 3.497 0 01-.824-3.787l-6.292-3.739a3.654 3.654 0 01-3.04 1.612C1.631 14.044 0 12.447 0 10.484c0-1.962 1.631-3.56 3.636-3.56 1.271 0 2.39.643 3.04 1.613l6.294-3.71a3.473 3.473 0 01-.243-1.268c0-1.963 1.632-3.56 3.637-3.56S20 1.596 20 3.56s-1.631 3.56-3.636 3.56a3.65 3.65 0 01-3.066-1.654L7.013 9.17c.166.407.26.85.26 1.315 0 .464-.094.906-.26 1.314l6.283 3.734a3.62 3.62 0 01.496-.609 3.695 3.695 0 015.142 0zM13.454 3.56c0 1.57 1.306 2.847 2.91 2.847s2.909-1.277 2.909-2.847S17.968.71 16.363.71c-1.604 0-2.908 1.278-2.908 2.848zm-6.908 6.926c0-1.57-1.305-2.848-2.91-2.848-1.603 0-2.908 1.277-2.908 2.848 0 1.57 1.305 2.847 2.909 2.847 1.604 0 2.909-1.277 2.909-2.847zm12.727 6.957a2.8 2.8 0 00-.852-2.014 2.934 2.934 0 00-2.057-.833c-.745 0-1.49.278-2.057.833a2.8 2.8 0 00-.852 2.014c0 .76.302 1.475.852 2.013a2.957 2.957 0 004.113 0 2.8 2.8 0 00.853-2.013z"/></svg><svg viewBox="0 0 16 16" id="icon-wp" xmlns="http://www.w3.org/2000/svg"><path fill="#7347c1" d="M7.666.165a7.5 7.5 0 11-.001 15.002A7.5 7.5 0 017.666.165zm-3.02 13.73L1.344 4.849a6.922 6.922 0 003.302 9.046zm5.319.3a.68.68 0 01-.05-.094L7.789 8.27l-2.077 6.035a6.927 6.927 0 004.254-.111zm1.182-.547a6.916 6.916 0 003.44-5.982 6.892 6.892 0 00-.847-3.322c.03.222.048.458.048.712 0 .703-.133 1.492-.527 2.48zm-.058-9.864c0-.636.481-1.228 1.162-1.228.03 0 .06.003.09.006A6.89 6.89 0 007.665.744a6.914 6.914 0 00-5.783 3.12c.163.005.315.008.445.008.725 0 1.845-.088 1.845-.088.372-.021.418.526.045.571 0 0-.376.042-.793.066l2.521 7.497L7.46 7.376 6.383 4.42c-.373-.024-.727-.066-.727-.066-.372-.022-.329-.592.045-.571 0 0 1.142.088 1.822.088.724 0 1.845-.088 1.845-.088.372-.021.417.526.044.571 0 0-.374.042-.792.066l2.502 7.44.69-2.307c.35-.9.527-1.645.527-2.238 0-.855-.308-1.448-.57-1.909-.351-.57-.68-1.052-.68-1.623z"/></svg><svg viewBox="0 0 20 20" id="inbox" xmlns="http://www.w3.org/2000/svg"><path d="M19.557 10.383l-2.698-6.168c-.298-.682-1.115-1.216-1.859-1.216H5c-.744 0-1.561.534-1.859 1.216L.443 10.383C.195 10.951 0 11.88 0 12.5v4c0 .827.673 1.5 1.5 1.5h17c.827 0 1.5-.673 1.5-1.5v-4c0-.619-.194-1.549-.443-2.117zm-15.5-5.766C4.198 4.294 4.648 4 5 4h10c.352 0 .802.294.943.617l2.698 6.168c.03.069.06.148.089.233A1.457 1.457 0 0018.5 11h-6a.5.5 0 00-.5.5v.5c0 1.103-.897 2-2 2s-2-.897-2-2v-.5a.5.5 0 00-.5-.5h-6c-.078 0-.155.006-.23.018.029-.085.058-.164.089-.233l2.698-6.168zM19 16.5a.5.5 0 01-.5.5h-17a.5.5 0 01-.5-.5v-4a.5.5 0 01.5-.5H7c0 1.654 1.346 3 3 3s3-1.346 3-3h5.5a.5.5 0 01.5.5v4z"/></svg><svg viewBox="0 0 20 20" id="leaf" xmlns="http://www.w3.org/2000/svg"><path d="M19.883.178A.5.5 0 0019.501 0h-.51C13.951-.002 9.97-.003 7.039.698c-1.575.377-2.793.946-3.723 1.739-1.004.856-1.688 1.977-2.093 3.429-.269.964-.395 2.705.136 4.437.196.64.502 1.244.91 1.799C1.053 14.007.002 16.516.002 19.501a.5.5 0 001 0c0-4.605 2.728-8.021 4.354-9.646 1.167-1.167 2.486-2.152 3.816-2.848 1.238-.648 2.421-1.005 3.331-1.005a.5.5 0 000-1c-1.084 0-2.396.387-3.794 1.12-1.418.743-2.822 1.789-4.059 3.027a17.933 17.933 0 00-1.774 2.07 4.947 4.947 0 01-.559-1.207c-.5-1.632-.316-3.204-.129-3.875C3.618 1.012 9.05.999 18.905 1.002 17.73 7.29 15.539 11.36 12.389 13.103c-2.922 1.617-5.82.735-6.931.28a5.366 5.366 0 01-.699-.35.5.5 0 00-.511.859c.272.162.552.302.832.417a9.917 9.917 0 003.679.722 8.392 8.392 0 004.115-1.053c1.609-.89 3.001-2.339 4.139-4.304 1.334-2.305 2.338-5.362 2.983-9.086a.5.5 0 00-.11-.407z"/></svg><svg viewBox="0 0 20 20" id="license" xmlns="http://www.w3.org/2000/svg"><path d="M18.5 18h-17C.673 18 0 17.327 0 16.5v-13C0 2.673.673 2 1.5 2h17c.827 0 1.5.673 1.5 1.5v13c0 .827-.673 1.5-1.5 1.5zM1.5 3a.5.5 0 00-.5.5v13a.5.5 0 00.5.5h17a.5.5 0 00.5-.5v-13a.5.5 0 00-.5-.5h-17z"/><path d="M9.5 6h-6a.5.5 0 010-1h6a.5.5 0 010 1zM9.5 9h-6a.5.5 0 010-1h6a.5.5 0 010 1zM9.5 11h-6a.5.5 0 010-1h6a.5.5 0 010 1zM9.5 13h-6a.5.5 0 010-1h6a.5.5 0 010 1zM8.5 15h-5a.5.5 0 010-1h5a.5.5 0 010 1zM17.943 6.544l-.813-.591-.311-.956h-1.005l-.813-.591-.813.591h-1.005l-.311.956-.813.591.311.956-.311.956.813.591.132.406c-.002.016-.002.031-.002.047v5a.5.5 0 00.854.354l1.146-1.146 1.146 1.146a.494.494 0 00.545.108.5.5 0 00.309-.462v-5A.708.708 0 0017 9.453l.132-.406.813-.591-.311-.956.311-.956zm-4.71.382l.488-.355.187-.574h.604L15 5.642l.488.355h.604l.187.574.488.355-.187.574.187.574-.488.355-.187.574h-.604L15 9.358l-.488-.355h-.604l-.187-.574-.488-.355.187-.574-.187-.574zm2.121 5.72a.5.5 0 00-.707 0l-.646.646v-3.29h.187l.813.591.813-.591h.187v3.29l-.646-.646z"/></svg><svg aria-hidden="true" data-prefix="fab" data-icon="linkedin-in" class="bosvg-inline--fa bofa-linkedin-in bofa-w-14" viewBox="0 0 448 512" id="linkedin" xmlns="http://www.w3.org/2000/svg"><path fill="currentColor" d="M100.28 448H7.4V148.9h92.88zM53.79 108.1C24.09 108.1 0 83.5 0 53.8a53.79 53.79 0 01107.58 0c0 29.7-24.1 54.3-53.79 54.3zM447.9 448h-92.68V302.4c0-34.7-.7-79.2-48.29-79.2-48.29 0-55.69 37.7-55.69 76.7V448h-92.78V148.9h89.08v40.8h1.3c12.4-23.5 42.69-48.3 87.88-48.3 94 0 111.28 61.9 111.28 142.3V448z"/></svg><svg viewBox="0 0 20 20" id="lock" xmlns="http://www.w3.org/2000/svg"><path d="M14.5 8H14V6.5C14 4.019 11.981 2 9.5 2S5 4.019 5 6.5V8h-.5C3.673 8 3 8.673 3 9.5v8c0 .827.673 1.5 1.5 1.5h10c.827 0 1.5-.673 1.5-1.5v-8c0-.827-.673-1.5-1.5-1.5zM6 6.5C6 4.57 7.57 3 9.5 3S13 4.57 13 6.5V8H6V6.5zm9 11a.5.5 0 01-.5.5h-10a.5.5 0 01-.5-.5v-8a.5.5 0 01.5-.5h10a.5.5 0 01.5.5v8z"/></svg><svg viewBox="0 0 20 20" id="magic-wand" xmlns="http://www.w3.org/2000/svg"><path d="M11.5 7a.5.5 0 01-.5-.5C11 5.122 9.878 4 8.5 4a.5.5 0 010-1C9.878 3 11 1.878 11 .5a.5.5 0 011 0C12 1.878 13.122 3 14.5 3a.5.5 0 010 1A2.503 2.503 0 0012 6.5a.5.5 0 01-.5.5zm-1.199-3.5c.49.296.903.708 1.199 1.199.296-.49.708-.903 1.199-1.199A3.536 3.536 0 0111.5 2.301c-.296.49-.708.903-1.199 1.199zM1.5 10c-.276 0-.5-.224-.5-.5S.776 9 .5 9a.5.5 0 010-1c.276 0 .5-.224.5-.5a.5.5 0 011 0c0 .276.224.5.5.5a.5.5 0 010 1c-.276 0-.5.224-.5.5s-.224.5-.5.5zM18.147 15.939L7.561 5.353c-.283-.283-.659-.438-1.061-.438s-.778.156-1.061.438l-.586.586c-.283.283-.438.659-.438 1.061s.156.778.438 1.061l10.586 10.586c.283.283.659.438 1.061.438s.778-.156 1.061-.438l.586-.586c.283-.283.438-.659.438-1.061s-.156-.778-.438-1.061zM5.561 6.646l.586-.586c.094-.094.219-.145.354-.145s.26.052.354.145l1.439 1.439-1.293 1.293-1.439-1.439a.5.5 0 010-.707zm11.878 10.708l-.586.586c-.094.094-.219.145-.353.145s-.26-.052-.353-.145L7.708 9.501l1.293-1.293 8.439 8.439a.5.5 0 010 .707zM3.5 5a.5.5 0 01-.5-.5C3 3.673 2.327 3 1.5 3a.5.5 0 010-1C2.327 2 3 1.327 3 .5a.5.5 0 011 0C4 1.327 4.673 2 5.5 2a.5.5 0 010 1C4.673 3 4 3.673 4 4.5a.5.5 0 01-.5.5zm-.502-2.5c.19.143.359.312.502.502a2.54 2.54 0 01.502-.502 2.54 2.54 0 01-.502-.502 2.54 2.54 0 01-.502.502zM3.5 15a.5.5 0 01-.5-.5c0-.827-.673-1.5-1.5-1.5a.5.5 0 010-1c.827 0 1.5-.673 1.5-1.5a.5.5 0 011 0c0 .827.673 1.5 1.5 1.5a.5.5 0 010 1c-.827 0-1.5.673-1.5 1.5a.5.5 0 01-.5.5zm-.502-2.5c.19.143.359.312.502.502a2.54 2.54 0 01.502-.502 2.54 2.54 0 01-.502-.502 2.54 2.54 0 01-.502.502z"/></svg><svg viewBox="0 0 20 20" id="magnifier" xmlns="http://www.w3.org/2000/svg"><path d="M18.869 19.162l-5.943-6.484A7.448 7.448 0 0015.001 7.5c0-2.003-.78-3.887-2.197-5.303S9.504 0 7.501 0 3.614.78 2.198 2.197.001 5.497.001 7.5s.78 3.887 2.197 5.303S5.498 15 7.501 15a7.441 7.441 0 004.688-1.645l5.943 6.483a.497.497 0 00.707.031.5.5 0 00.031-.706zM1 7.5C1 3.916 3.916 1 7.5 1S14 3.916 14 7.5 11.084 14 7.5 14 1 11.084 1 7.5z"/></svg><svg viewBox="0 0 20 20" id="map-marker" xmlns="http://www.w3.org/2000/svg"><path d="M10 20a.5.5 0 01-.393-.191c-.057-.073-1.418-1.814-2.797-4.385-.812-1.513-1.46-2.999-1.925-4.416C4.298 9.221 4.001 7.536 4.001 6c0-3.308 2.692-6 6-6s6 2.692 6 6c0 1.536-.298 3.22-.884 5.008-.465 1.417-1.113 2.903-1.925 4.416-1.38 2.571-2.74 4.312-2.797 4.385a.5.5 0 01-.393.191zm0-19C7.243 1 5 3.243 5 6c0 3.254 1.463 6.664 2.691 8.951A34.411 34.411 0 0010 18.661a34.38 34.38 0 002.318-3.726C13.541 12.652 15 9.248 15 6c0-2.757-2.243-5-5-5z"/><path d="M10 9C8.346 9 7 7.654 7 6s1.346-3 3-3 3 1.346 3 3-1.346 3-3 3zm0-5c-1.103 0-2 .897-2 2s.897 2 2 2 2-.897 2-2-.897-2-2-2z"/></svg><svg viewBox="0 0 20 20" id="phone" xmlns="http://www.w3.org/2000/svg"><path d="M17.894 8.897c-1.041 0-2.928-.375-3.516-.963-.361-.361-.446-.813-.515-1.177-.085-.448-.136-.581-.332-.666-.902-.388-2.196-.61-3.551-.61-1.34 0-2.62.219-3.512.6-.194.083-.244.216-.327.663-.068.365-.152.819-.512 1.179-.328.328-1.015.554-1.533.685a8.43 8.43 0 01-1.963.267c-.664 0-1.113-.126-1.372-.386a2.383 2.383 0 01-.685-1.467C.039 6.566.127 5.89.756 5.26c1.022-1.022 2.396-1.819 4.086-2.368 1.554-.506 3.322-.773 5.114-.773 1.804 0 3.587.27 5.156.782 1.705.556 3.093 1.361 4.124 2.393 1.05 1.05.79 2.443.012 3.221-.257.257-.7.382-1.354.382zM9.98 4.481c1.507 0 2.908.246 3.946.691.713.306.833.938.92 1.398.052.275.097.513.24.656.252.252 1.706.671 2.809.671.481 0 .633-.082.652-.094.31-.314.698-1.086-.017-1.802-1.805-1.805-5.01-2.882-8.574-2.882-3.535 0-6.709 1.065-8.493 2.848-.288.288-.42.616-.391.974.025.302.17.614.39.836.019.012.173.098.67.098 1.098 0 2.541-.411 2.789-.659.141-.141.185-.379.236-.654.086-.462.203-1.095.917-1.4 1.026-.439 2.413-.68 3.905-.68z"/><path d="M16.5 18h-13a2.373 2.373 0 01-2.388-2.525c.004-.077.118-1.901 1.27-3.739a7.5 7.5 0 012.686-2.577C6.429 8.39 8.088 8 10 8s3.571.39 4.932 1.159a7.483 7.483 0 012.686 2.577c1.152 1.839 1.266 3.663 1.27 3.739A2.376 2.376 0 0116.5 18zM10 9c-3.117 0-5.388 1.088-6.749 3.233-1.03 1.623-1.139 3.282-1.14 3.299-.022.392.111.761.373 1.038s.623.43 1.017.43h13c.393 0 .754-.153 1.017-.43s.395-.646.373-1.039c-.001-.016-.111-1.675-1.14-3.298C15.389 10.088 13.118 9 10.002 9z"/><path d="M10 16c-1.654 0-3-1.346-3-3s1.346-3 3-3 3 1.346 3 3-1.346 3-3 3zm0-5c-1.103 0-2 .897-2 2s.897 2 2 2 2-.897 2-2-.897-2-2-2z"/></svg><svg viewBox="0 0 20 20" id="phone-handset" xmlns="http://www.w3.org/2000/svg"><path d="M16 20c-1.771 0-3.655-.502-5.6-1.492-1.793-.913-3.564-2.22-5.122-3.78s-2.863-3.333-3.775-5.127C.515 7.655.013 5.771.013 4c0-1.148 1.07-2.257 1.529-2.68C2.203.711 3.243 0 3.999 0c.376 0 .816.246 1.387.774.425.394.904.928 1.383 1.544.289.372 1.73 2.271 1.73 3.182 0 .747-.845 1.267-1.739 1.816-.346.212-.703.432-.961.639-.276.221-.325.338-.333.364.949 2.366 3.85 5.267 6.215 6.215.021-.007.138-.053.363-.333.207-.258.427-.616.639-.961.55-.894 1.069-1.739 1.816-1.739.911 0 2.81 1.441 3.182 1.73.616.479 1.15.958 1.544 1.383.528.57.774 1.011.774 1.387 0 .756-.711 1.799-1.319 2.463-.424.462-1.533 1.537-2.681 1.537zM3.994 1c-.268.005-.989.333-1.773 1.055C1.477 2.741 1.014 3.486 1.014 4c0 6.729 8.264 15 14.986 15 .513 0 1.258-.465 1.944-1.213.723-.788 1.051-1.512 1.056-1.781-.032-.19-.558-.929-1.997-2.037-1.237-.952-2.24-1.463-2.498-1.469-.018.005-.13.048-.357.336-.197.251-.408.594-.613.926-.56.911-1.089 1.772-1.858 1.772a.97.97 0 01-.363-.071c-2.625-1.05-5.729-4.154-6.779-6.779-.126-.315-.146-.809.474-1.371.33-.299.786-.579 1.228-.851.332-.204.676-.415.926-.613.288-.227.331-.339.336-.357-.007-.258-.517-1.261-1.469-2.498C4.922 1.555 4.183 1.03 3.993.997z"/></svg><svg aria-hidden="true" data-prefix="fab" data-icon="pinterest-p" class="bvsvg-inline--fa bvfa-pinterest-p bvfa-w-12" viewBox="0 0 384 512" id="pinterest" xmlns="http://www.w3.org/2000/svg"><path fill="currentColor" d="M204 6.5C101.4 6.5 0 74.9 0 185.6 0 256 39.6 296 63.6 296c9.9 0 15.6-27.6 15.6-35.4 0-9.3-23.7-29.1-23.7-67.8 0-80.4 61.2-137.4 140.4-137.4 68.1 0 118.5 38.7 118.5 109.8 0 53.1-21.3 152.7-90.3 152.7-24.9 0-46.2-18-46.2-43.8 0-37.8 26.4-74.4 26.4-113.4 0-66.2-93.9-54.2-93.9 25.8 0 16.8 2.1 35.4 9.6 50.7-13.8 59.4-42 147.9-42 209.1 0 18.9 2.7 37.5 4.5 56.4 3.4 3.8 1.7 3.4 6.9 1.5 50.4-69 48.6-82.5 71.4-172.8 12.3 23.4 44.1 36 69.3 36 106.2 0 153.9-103.5 153.9-196.8C384 71.3 298.2 6.5 204 6.5z"/></svg><svg viewBox="0 0 20 20" id="question-circle" xmlns="http://www.w3.org/2000/svg"><path d="M16.218 3.782C14.424 1.988 12.038 1 9.5 1s-4.923.988-6.718 2.782S0 7.962 0 10.499s.988 4.923 2.782 6.718 4.18 2.782 6.718 2.782 4.923-.988 6.718-2.782S19 13.037 19 10.499s-.988-4.923-2.782-6.717zM9.5 19C4.813 19 1 15.187 1 10.5S4.813 2 9.5 2c4.687 0 8.5 3.813 8.5 8.5S14.187 19 9.5 19z"/><path d="M9.5 15a.5.5 0 01-.5-.5v-2a.5.5 0 01.5-.5c1.93 0 3.5-1.57 3.5-3.5S11.43 5 9.5 5 6 6.57 6 8.5a.5.5 0 01-1 0C5 6.019 7.019 4 9.5 4S14 6.019 14 8.5a4.506 4.506 0 01-4 4.472V14.5a.5.5 0 01-.5.5zM9.5 18a.5.5 0 01-.5-.5v-1a.5.5 0 011 0v1a.5.5 0 01-.5.5z"/></svg><svg viewBox="0 0 20 20" id="search" xmlns="http://www.w3.org/2000/svg"><path fill="#fff" d="M18.869 19.162l-5.943-6.484A7.448 7.448 0 0015.001 7.5c0-2.003-.78-3.887-2.197-5.303S9.504 0 7.501 0 3.614.78 2.198 2.197.001 5.497.001 7.5s.78 3.887 2.197 5.303S5.498 15 7.501 15a7.441 7.441 0 004.688-1.645l5.943 6.483a.497.497 0 00.707.031.5.5 0 00.031-.706zM1 7.5C1 3.916 3.916 1 7.5 1S14 3.916 14 7.5 11.084 14 7.5 14 1 11.084 1 7.5z"/></svg><svg viewBox="0 0 20 20" id="smile" xmlns="http://www.w3.org/2000/svg"><path d="M9.5 20c-2.538 0-4.923-.988-6.718-2.782S0 13.038 0 10.501c0-2.538.988-4.923 2.782-6.718S6.962 1 9.5 1c2.538 0 4.923.988 6.718 2.783S19 7.963 19 10.501s-.988 4.923-2.782 6.717A9.438 9.438 0 019.5 20zm0-18C4.813 2 1 5.813 1 10.5S4.813 19 9.5 19s8.5-3.813 8.5-8.5S14.187 2 9.5 2z"/><path d="M6.5 8C5.673 8 5 7.327 5 6.5S5.673 5 6.5 5 8 5.673 8 6.5 7.327 8 6.5 8zm0-2a.5.5 0 100 1 .5.5 0 000-1zM12.5 8c-.827 0-1.5-.673-1.5-1.5S11.673 5 12.5 5s1.5.673 1.5 1.5S13.327 8 12.5 8zm0-2a.5.5 0 100 1 .5.5 0 000-1zM9.5 17A6.508 6.508 0 013 10.5a.5.5 0 011 0C4 13.533 6.467 16 9.5 16s5.5-2.467 5.5-5.5a.5.5 0 011 0c0 3.584-2.916 6.5-6.5 6.5z"/></svg><svg viewBox="0 0 20 20" id="star" xmlns="http://www.w3.org/2000/svg"><path d="M15.5 19a.497.497 0 01-.239-.061L10 16.07l-5.261 2.869a.499.499 0 01-.732-.522l.958-5.746-3.818-3.818a.501.501 0 01.271-.847l5.749-.958 2.386-4.772a.5.5 0 01.894 0l2.386 4.772 5.749.958a.5.5 0 01.271.847l-3.818 3.818.958 5.746A.503.503 0 0115.5 19zM10 15c.082 0 .165.02.239.061l4.599 2.508-.831-4.987a.497.497 0 01.14-.436l3.313-3.313-5.042-.84a.5.5 0 01-.365-.27L10 3.617 7.947 7.723a.503.503 0 01-.365.27l-5.042.84 3.313 3.313a.502.502 0 01.14.436l-.831 4.987 4.599-2.508A.497.497 0 0110 15z"/></svg><svg viewBox="0 0 26 28" fill="#ffc000" id="star-o" xmlns="http://www.w3.org/2000/svg"><path d="M17.766 15.687l4.781-4.641-6.594-.969L13 4.108l-2.953 5.969-6.594.969 4.781 4.641-1.141 6.578 5.906-3.109 5.891 3.109zM26 10.109c0 .281-.203.547-.406.75l-5.672 5.531 1.344 7.812c.016.109.016.203.016.313 0 .422-.187.781-.641.781a1.27 1.27 0 01-.625-.187L13 21.422l-7.016 3.687c-.203.109-.406.187-.625.187-.453 0-.656-.375-.656-.781 0-.109.016-.203.031-.313l1.344-7.812L.39 10.859c-.187-.203-.391-.469-.391-.75 0-.469.484-.656.875-.719l7.844-1.141 3.516-7.109c.141-.297.406-.641.766-.641s.625.344.766.641l3.516 7.109 7.844 1.141c.375.063.875.25.875.719z"/></svg><svg viewBox="0 0 20 20" id="trash" xmlns="http://www.w3.org/2000/svg"><path d="M15.5 2H12v-.5c0-.827-.673-1.5-1.5-1.5h-2C7.673 0 7 .673 7 1.5V2H3.5C2.673 2 2 2.673 2 3.5v1c0 .652.418 1.208 1 1.414V18.5c0 .827.673 1.5 1.5 1.5h10c.827 0 1.5-.673 1.5-1.5V5.914c.582-.206 1-.762 1-1.414v-1c0-.827-.673-1.5-1.5-1.5zM8 1.5a.5.5 0 01.5-.5h2a.5.5 0 01.5.5V2H8v-.5zM14.5 19h-10a.5.5 0 01-.5-.5V6h11v12.5a.5.5 0 01-.5.5zM16 4.5a.5.5 0 01-.5.5h-12a.5.5 0 01-.5-.5v-1a.5.5 0 01.5-.5h12a.5.5 0 01.5.5v1z"/><path d="M12.5 7a.5.5 0 00-.5.5v10a.5.5 0 001 0v-10a.5.5 0 00-.5-.5zM9.5 7a.5.5 0 00-.5.5v10a.5.5 0 001 0v-10a.5.5 0 00-.5-.5zM6.5 7a.5.5 0 00-.5.5v10a.5.5 0 001 0v-10a.5.5 0 00-.5-.5z"/></svg><svg aria-hidden="true" data-prefix="fab" data-icon="twitter" class="ccsvg-inline--fa ccfa-twitter ccfa-w-16" viewBox="0 0 512 512" id="twitter" xmlns="http://www.w3.org/2000/svg"><path fill="currentColor" d="M459.37 151.716c.325 4.548.325 9.097.325 13.645 0 138.72-105.583 298.558-298.558 298.558-59.452 0-114.68-17.219-161.137-47.106 8.447.974 16.568 1.299 25.34 1.299 49.055 0 94.213-16.568 130.274-44.832-46.132-.975-84.792-31.188-98.112-72.772 6.498.974 12.995 1.624 19.818 1.624 9.421 0 18.843-1.3 27.614-3.573-48.081-9.747-84.143-51.98-84.143-102.985v-1.299c13.969 7.797 30.214 12.67 47.431 13.319-28.264-18.843-46.781-51.005-46.781-87.391 0-19.492 5.197-37.36 14.294-52.954 51.655 63.675 129.3 105.258 216.365 109.807-1.624-7.797-2.599-15.918-2.599-24.04 0-57.828 46.782-104.934 104.934-104.934 30.213 0 57.502 12.67 76.67 33.137 23.715-4.548 46.456-13.32 66.599-25.34-7.798 24.366-24.366 44.833-46.132 57.827 21.117-2.273 41.584-8.122 60.426-16.243-14.292 20.791-32.161 39.308-52.628 54.253z"/></svg><svg viewBox="0 0 20 20" id="upload" xmlns="http://www.w3.org/2000/svg"><path d="M17.5 19h-16C.673 19 0 18.327 0 17.5v-2a.5.5 0 011 0v2a.5.5 0 00.5.5h16a.5.5 0 00.5-.5v-2a.5.5 0 011 0v2c0 .827-.673 1.5-1.5 1.5z"/><path d="M14.854 8.646l-5-5a.5.5 0 00-.707 0l-5 5a.5.5 0 00.707.707L9 5.207V15.5a.5.5 0 001 0V5.207l4.146 4.146a.498.498 0 00.708 0 .5.5 0 000-.707z"/></svg><svg viewBox="0 0 20 20" id="user" xmlns="http://www.w3.org/2000/svg"><path d="M9.5 11C6.467 11 4 8.533 4 5.5S6.467 0 9.5 0 15 2.467 15 5.5 12.533 11 9.5 11zm0-10C7.019 1 5 3.019 5 5.5S7.019 10 9.5 10 14 7.981 14 5.5 11.981 1 9.5 1zM17.5 20h-16C.673 20 0 19.327 0 18.5c0-.068.014-1.685 1.225-3.3.705-.94 1.67-1.687 2.869-2.219C5.558 12.33 7.377 12 9.5 12s3.942.33 5.406.981c1.199.533 2.164 1.279 2.869 2.219C18.986 16.815 19 18.432 19 18.5c0 .827-.673 1.5-1.5 1.5zm-8-7c-3.487 0-6.06.953-7.441 2.756C1.024 17.107 1.001 18.488 1 18.502a.5.5 0 00.5.498h16a.5.5 0 00.5-.5c0-.012-.023-1.393-1.059-2.744C15.559 13.953 12.986 13 9.5 13z"/></svg><svg viewBox="0 0 20 20" id="users" xmlns="http://www.w3.org/2000/svg"><path d="M18.5 18h-11c-.827 0-1.5-.673-1.5-1.5 0-.048.011-1.19.924-2.315.525-.646 1.241-1.158 2.128-1.522 1.071-.44 2.4-.662 3.948-.662s2.876.223 3.948.662c.887.364 1.603.876 2.128 1.522.914 1.125.924 2.267.924 2.315 0 .827-.673 1.5-1.5 1.5zM7 16.503a.5.5 0 00.5.497h11a.5.5 0 00.5-.497c-.001-.035-.032-.895-.739-1.734-.974-1.157-2.793-1.768-5.261-1.768s-4.287.612-5.261 1.768c-.707.84-.738 1.699-.739 1.734zM13 11c-2.206 0-4-1.794-4-4s1.794-4 4-4 4 1.794 4 4-1.794 4-4 4zm0-7c-1.654 0-3 1.346-3 3s1.346 3 3 3 3-1.346 3-3-1.346-3-3-3zM4.5 18h-3C.673 18 0 17.327 0 16.5c0-.037.008-.927.663-1.8.378-.505.894-.904 1.533-1.188.764-.34 1.708-.512 2.805-.512.179 0 .356.005.527.014a.5.5 0 01-.053.999 9.1 9.1 0 00-.473-.012c-3.894 0-3.997 2.379-4 2.503a.5.5 0 00.5.497h3a.5.5 0 010 1zM5 12c-1.654 0-3-1.346-3-3s1.346-3 3-3 3 1.346 3 3-1.346 3-3 3zm0-5c-1.103 0-2 .897-2 2s.897 2 2 2 2-.897 2-2-.897-2-2-2z"/></svg></svg>