<?xml version="1.0" encoding="utf-8"?>
  <!DOCTYPE svg PUBLIC "-//W3C//DTD SVG 1.1//EN" "http://www.w3.org/Graphics/SVG/1.1/DTD/svg11.dtd">
    <svg viewBox="0 0 512 512" xmlns="http://www.w3.org/2000/svg" xmlns:xlink="http://www.w3.org/1999/xlink">
      <style>:root>svg{display:none}:root>svg:target{display:block}</style>

        <svg fill="#7e8fa1" viewBox="0 0 512 512" id="alarm" xmlns="http://www.w3.org/2000/svg">
          <path d="M450.201 407.453c-1.505-.977-12.832-8.912-24.174-32.917-20.829-44.082-25.201-106.18-25.201-150.511 0-.193-.004-.384-.011-.576-.227-58.589-35.31-109.095-85.514-131.756V57.036C315.301 25.586 289.757 0 258.359 0h-4.719c-31.398 0-56.942 25.586-56.942 57.036v34.655c-50.372 22.734-85.525 73.498-85.525 132.334 0 44.331-4.372 106.428-25.201 150.511-11.341 24.004-22.668 31.939-24.174 32.917-6.342 2.935-9.469 9.715-8.01 16.586 1.473 6.939 7.959 11.723 15.042 11.723h109.947C179.391 477.903 213.785 512 256 512s76.609-34.097 77.223-76.238H443.17c7.082 0 13.569-4.784 15.042-11.723 1.457-6.871-1.669-13.652-8.011-16.586zM226.699 57.036c0-14.881 12.086-26.987 26.942-26.987h4.719c14.856 0 26.942 12.106 26.942 26.987v24.917a144.658 144.658 0 00-29.306-2.987A144.695 144.695 0 00226.7 81.95V57.036zM256 481.951c-25.673 0-46.614-20.617-47.223-46.188h94.445c-.608 25.57-21.549 46.188-47.222 46.188zm60.4-76.239H103.015c2.595-4.044 5.236-8.623 7.861-13.798 20.104-39.643 30.298-96.129 30.298-167.889 0-63.417 51.509-115.01 114.821-115.01s114.821 51.593 114.821 115.06c0 .185.003.369.01.553.057 71.472 10.25 127.755 30.298 167.286 2.625 5.176 5.267 9.754 7.861 13.798z"/>
        </svg>

        <svg viewBox="0 -31 512 512" fill="#7e8fa1" id="cart" xmlns="http://www.w3.org/2000/svg">
          <path d="M164.96 300.004h.024c.02 0 .04-.004.059-.004H437a15.003 15.003 0 0014.422-10.879l60-210a15.003 15.003 0 00-2.445-13.152A15.006 15.006 0 00497 60H130.367l-10.722-48.254A15.003 15.003 0 00105 0H15C6.715 0 0 6.715 0 15s6.715 15 15 15h77.969c1.898 8.55 51.312 230.918 54.156 243.71C131.184 280.64 120 296.536 120 315c0 24.812 20.188 45 45 45h272c8.285 0 15-6.715 15-15s-6.715-15-15-15H165c-8.27 0-15-6.73-15-15 0-8.258 6.707-14.977 14.96-14.996zM477.114 90l-51.43 180H177.032l-40-180zm0 0M150 405c0 24.813 20.188 45 45 45s45-20.188 45-45-20.188-45-45-45-45 20.188-45 45zm45-15c8.27 0 15 6.73 15 15s-6.73 15-15 15-15-6.73-15-15 6.73-15 15-15zm0 0M362 405c0 24.813 20.188 45 45 45s45-20.188 45-45-20.188-45-45-45-45 20.188-45 45zm45-15c8.27 0 15 6.73 15 15s-6.73 15-15 15-15-6.73-15-15 6.73-15 15-15zm0 0"/>
        </svg>

        <svg viewBox="0 0 479.058 479.058" fill="#7e8fa1" id="envelope" xmlns="http://www.w3.org/2000/svg">
          <path d="M434.146 59.882H44.912C20.146 59.882 0 80.028 0 104.794v269.47c0 24.766 20.146 44.912 44.912 44.912h389.234c24.766 0 44.912-20.146 44.912-44.912v-269.47c0-24.766-20.146-44.912-44.912-44.912zm0 29.941c2.034 0 3.969.422 5.738 1.159L239.529 264.631 39.173 90.982a14.902 14.902 0 015.738-1.159zm0 299.411H44.912c-8.26 0-14.971-6.71-14.971-14.971V122.615l199.778 173.141c2.822 2.441 6.316 3.655 9.81 3.655s6.988-1.213 9.81-3.655l199.778-173.141v251.649c-.001 8.26-6.711 14.97-14.971 14.97z"/>
        </svg>

        <svg viewBox="0 0 100 100" id="icon-buy" xmlns="http://www.w3.org/2000/svg">
          <path fill="#fff" d="M99.308 90.792a2.087 2.087 0 010 2.95l-5.64 5.644a2.083 2.083 0 01-2.947 0L79.703 88.359l-4.992 4.997a2.091 2.091 0 01-.72.467 50.49 50.49 0 01-4.103 2.002h.899a2.085 2.085 0 010 4.171h-41.67a2.085 2.085 0 110-4.17h.772a49.574 49.574 0 01-4.94-2.497C13.43 86.673 5.176 75.877 1.71 62.93-1.757 49.982-.003 36.5 6.649 24.97 13.3 13.44 24.089 5.179 37.026 1.71 49.962-1.76 63.432-.003 74.953 6.653c11.405 6.59 19.625 17.263 23.148 30.054 3.518 12.776 1.933 26.142-4.465 37.635-.153.275-.36.5-.6.672l-4.747 4.752zm-28.518.005l-6.363-23.765a2.084 2.084 0 112.552-2.553l23.789 6.378c10.99-21.529 3.18-48.414-17.898-60.593-10.558-6.1-22.905-7.707-34.767-4.526-11.862 3.18-21.751 10.75-27.846 21.316C4.16 37.62 2.555 49.977 5.733 61.849c3.179 11.871 10.743 21.769 21.3 27.869 13.332 7.704 29.965 8.08 43.757 1.079zm24.098 1.47L83.87 81.239a2.085 2.085 0 010-2.949l3.913-3.916-18.397-4.933 4.93 18.411 3.914-3.917a2.086 2.086 0 012.946 0l11.018 11.028zM20.934 59.57c-.505-.495-.757-1.297-.757-2.406V42.61c0-2.18 1.039-3.268 3.117-3.268h3.472c1.128 0 2.207.06 3.236.178 1.702.177 2.958.678 3.77 1.5.81.821 1.216 1.996 1.216 3.52 0 1.286-.247 2.317-.742 3.09-.494.771-1.276 1.337-2.345 1.693 1.247.297 2.182.836 2.805 1.619.624.78.935 1.876.935 3.282 0 2.812-1 4.615-2.998 5.406-1.148.456-3.166.684-6.055.684h-3.295c-1.068 0-1.855-.248-2.359-.743zm3.339-15.864v4.16h2.73c1.267 0 2.108-.09 2.523-.268.89-.376 1.336-1.149 1.336-2.317 0-.773-.144-1.332-.43-1.678-.287-.347-.708-.608-1.262-.788-.435-.118-1.088-.178-1.959-.178h-2.047c-.594 0-.891.358-.891 1.07zm0 7.427v4.634c0 .397.084.685.252.863.168.177.46.267.876.267h2.196c1.128 0 1.94-.1 2.434-.297.95-.376 1.425-1.298 1.425-2.764 0-1.188-.505-1.99-1.514-2.405-.514-.198-1.435-.298-2.76-.298zm44.443 8.318V51.61l-6.53-10.695c-.258-.436-.386-.763-.386-.98 0-.257.128-.447.386-.565.218-.079 1.326-.119 3.324-.119.474 0 .87.278 1.187.832 1.9 3.15 3.305 5.605 4.215 7.368.752-1.446 2.167-3.882 4.244-7.308.337-.595.743-.892 1.217-.892 1.702 0 2.701.05 2.998.15.238.098.356.267.357.504 0 .22-.119.535-.356.951l-6.53 10.634v7.962c0 .277-.08.495-.238.653a.8.8 0 01-.594.238h-2.493c-.535 0-.802-.297-.802-.89zm-11.121-19.31v11.794c0 1.584-.06 2.812-.178 3.684-.119.871-.356 1.615-.713 2.229-1.167 1.92-3.64 2.88-7.42 2.88-3.839 0-6.233-1.029-7.183-3.089-.435-.95-.653-2.832-.653-5.644V40.143c0-.555.267-.832.802-.832h2.612c.455 0 .682.277.682.832v12.744c0 1.564.208 2.634.623 3.208.554.792 1.673 1.188 3.355 1.188 1.82 0 2.988-.377 3.502-1.129.435-.613.653-1.682.653-3.207V40.143c0-.555.267-.832.801-.832h2.404c.475 0 .713.278.713.832zM41.719 88.8a2.085 2.085 0 01-2.552 1.474C24.833 86.428 13.543 75.13 9.702 60.785a2.084 2.084 0 114.025-1.08c3.457 12.91 13.618 23.08 26.519 26.54a2.087 2.087 0 011.473 2.554zm17.94-75.062a2.086 2.086 0 011.077-4.028c14.334 3.843 25.625 15.14 29.465 29.486a2.087 2.087 0 01-2.013 2.627c-.92 0-1.762-.614-2.012-1.546-3.456-12.911-13.618-23.08-26.518-26.54zm-8.94 75.92a2.085 2.085 0 01-2.082 2.015l-.072-.001a43.201 43.201 0 01-1.73-.094 2.084 2.084 0 01-1.922-2.235 2.084 2.084 0 012.233-1.924 38.33 38.33 0 001.56.084 2.085 2.085 0 012.012 2.155zm-1.533-79.335a2.08 2.08 0 012.154-2.01 41.57 41.57 0 011.73.092 2.085 2.085 0 01-.313 4.159 38.826 38.826 0 00-1.561-.084 2.086 2.086 0 01-2.01-2.156z"/>
        </svg>

        <svg viewBox="0 0 20 20" id="icon-check" xmlns="http://www.w3.org/2000/svg">
          <path fill="#0674ec" d="M2.93 17.069c-3.905-3.905-3.905-10.235 0-14.14a9.997 9.997 0 0114.14 0c3.905 3.905 3.905 10.235 0 14.14-3.902 3.905-10.235 3.905-14.14 0zm1.742-6.856l2.249 2.248 1.742 1.743 1.747-1.743 4.921-4.92-1.742-1.743-4.926 4.921-2.248-2.248z"/>
        </svg>
        
        <svg viewBox="0 0 13 10" id="icon-chevron" xmlns="http://www.w3.org/2000/svg">
          <path d="M.15 5.502a.54.54 0 01-.15-.35c0-.1.05-.249.15-.349l.7-.7c.2-.2.5-.2.7 0l.05.05 2.747 2.948c.1.1.25.1.35 0L11.393.156h.05c.2-.2.5-.2.7 0l.7.7c.2.2.2.5 0 .7L4.847 9.848c-.1.1-.2.15-.35.15-.15 0-.25-.05-.35-.15L.25 5.652z"/>
        </svg>

        <svg viewBox="0 0 5 20" id="icon-dots-vertical" xmlns="http://www.w3.org/2000/svg">
          <path fill="#a3b1c4" d="M.012 17.932c.038-1.104 1.06-1.971 2.284-1.938 1.223.034 2.185.956 2.147 2.06-.037 1.104-1.06 1.97-2.283 1.938-1.224-.035-2.186-.957-2.148-2.06zm.272-7.994C.322 8.833 1.344 7.967 2.568 8c1.224.034 2.185.956 2.148 2.06-.038 1.104-1.06 1.971-2.284 1.938-1.224-.035-2.185-.957-2.148-2.06zm.273-7.994C.594.839 1.617-.028 2.84.006c1.224.033 2.186.956 2.148 2.06-.038 1.103-1.06 1.971-2.284 1.937C1.481 3.969.52 3.047.557 1.943z"/>
        </svg>

        <svg viewBox="0 0 10 10" id="icon-ellipse" xmlns="http://www.w3.org/2000/svg">
          <defs>
            <clipPath id="ha">
              <path fill="#fff" d="M5 0a5 5 0 110 10A5 5 0 015 0z"/>
            </clipPath>
          </defs>
            <path fill="none" stroke="#747b86" stroke-miterlimit="20" stroke-width="2" d="M5 0a5 5 0 110 10A5 5 0 015 0z" clip-path="url(#ha)"/>
        </svg>

        <svg viewBox="0 0 20 20" id="icon-grid" xmlns="http://www.w3.org/2000/svg">
          <path fill="#0674ec" d="M10.415 12.358v1.573a.417.417 0 01-.415.418.417.417 0 01-.415-.418v-1.573c0-.23.186-.418.415-.418.23 0 .415.187.415.418zm0-6.29v1.573a.417.417 0 01-.415.418.417.417 0 01-.415-.418V6.068c0-.23.186-.418.415-.418.23 0 .415.187.415.418zm0 9.435v1.572a.417.417 0 01-.415.42.417.417 0 01-.415-.42v-1.572a.416.416 0 11.83 0zm0-12.58v1.573a.417.417 0 01-.415.418.417.417 0 01-.415-.418V2.923a.416.416 0 11.83 0zM4.953 10a.417.417 0 01-.416.418h-1.56A.417.417 0 012.56 10c0-.231.186-.42.415-.42h1.561c.23 0 .416.189.416.42zm3.121 0a.417.417 0 01-.415.418H6.098A.417.417 0 015.682 10c0-.231.186-.42.416-.42h1.56c.23 0 .416.189.416.42zm3.122 0a.417.417 0 01-.416.418h-.365v.368c0 .23-.186.418-.415.418a.417.417 0 01-.415-.418v-.368h-.366A.417.417 0 018.804 10c0-.231.186-.42.415-.42h.366v-.367c0-.23.186-.418.415-.418.23 0 .415.187.415.418v.368h.365c.23 0 .416.188.416.419zm6.243 0a.417.417 0 01-.415.418h-1.561a.417.417 0 01-.416-.418c0-.231.186-.42.416-.42h1.56c.23 0 .416.189.416.42zm-3.122 0a.417.417 0 01-.415.418h-1.56a.417.417 0 01-.416-.418c0-.231.186-.42.415-.42h1.561c.23 0 .415.189.415.42zM19.941.514v18.971a.417.417 0 01-.415.418H.474a.417.417 0 01-.415-.418V.514c0-.231.186-.419.415-.419h19.052c.23 0 .415.188.415.419zm-.83.419h-8.696v.418a.417.417 0 01-.415.418.417.417 0 01-.415-.418V.933H.889V9.58h.527c.23 0 .415.188.415.419a.417.417 0 01-.415.418H.889v8.648h8.696v-.418a.416.416 0 11.83 0v.418h8.695v-8.648h-.526A.417.417 0 0118.17 10c0-.231.186-.42.415-.42h.526z"/>
        </svg>

        <svg viewBox="0 0 20 19" id="icon-list" xmlns="http://www.w3.org/2000/svg">
          <path fill="#747b86" d="M20.016 10.436a.29.29 0 01-.293.288H7.51a.29.29 0 01-.293-.288.29.29 0 01.293-.287h12.212a.29.29 0 01.293.287zm0-1.842a.29.29 0 01-.293.288H7.51a.29.29 0 01-.293-.288.29.29 0 01.293-.287h12.212a.29.29 0 01.293.287zm-14.403-.92v3.684a.912.912 0 01-.92.901H.936a.912.912 0 01-.92-.901V7.674c0-.498.413-.902.92-.902h3.757c.508 0 .92.404.92.902zm-.587 0a.33.33 0 00-.333-.327H.936a.33.33 0 00-.333.327v3.684c0 .18.15.326.333.326h3.757a.33.33 0 00.333-.326zm14.99-3.991a.29.29 0 01-.293.287H7.51a.29.29 0 01-.293-.287.29.29 0 01.293-.288h12.212a.29.29 0 01.293.288zM7.218 1.84a.29.29 0 01.293-.288h12.212a.29.29 0 01.293.288.291.291 0 01-.293.288H7.51a.291.291 0 01-.293-.288zM5.613.92v3.684a.912.912 0 01-.92.901H.936a.912.912 0 01-.92-.901V.92c0-.497.413-.902.92-.902h3.757c.508 0 .92.405.92.902zm-.587 0a.33.33 0 00-.333-.326H.936A.33.33 0 00.603.92v3.684c0 .18.15.326.333.326h3.757a.33.33 0 00.333-.326zm14.99 16.27a.29.29 0 01-.293.288H7.51a.29.29 0 01-.293-.288.29.29 0 01.293-.288h12.212a.29.29 0 01.293.288zm0-1.842a.29.29 0 01-.293.288H7.51a.29.29 0 01-.293-.288.29.29 0 01.293-.287h12.212a.29.29 0 01.293.287zm-14.403-.92v3.683a.912.912 0 01-.92.902H.936a.912.912 0 01-.92-.902v-3.684c0-.497.413-.901.92-.901h3.757c.508 0 .92.404.92.901zm-.587 0a.33.33 0 00-.333-.327H.936a.33.33 0 00-.333.326v3.684c0 .18.15.326.333.326h3.757a.33.33 0 00.333-.326z"/>
        </svg>

        <svg viewBox="0 0 50 50" id="icon-map-marker" xmlns="http://www.w3.org/2000/svg">
          <path fill="#0674ec" d="M2.085 47.988a.834.834 0 010 1.179l-.588.589a.827.827 0 01-1.174 0 .834.834 0 010-1.179l.587-.589a.828.828 0 011.175 0zm11.2-4.655c.46 0 .831.373.831.834 0 .46-.372.833-.83.833h-1.513a.832.832 0 01-.83-.833c0-.461.371-.834.83-.834zm4.537 0c.459 0 .83.373.83.834 0 .46-.371.833-.83.833H16.31a.832.832 0 01-.83-.833c0-.461.372-.834.83-.834zm-9.074 0c.459 0 .831.373.831.834 0 .46-.372.833-.83.833H7.236a.832.832 0 01-.831-.833c0-.461.372-.834.83-.834zM5.292 45.95l-1.07 1.073a.827.827 0 01-1.174 0 .834.834 0 010-1.179l1.07-1.072a.828.828 0 011.174 0 .834.834 0 010 1.178zm16.385-2.616c.459 0 .831.373.831.834 0 .46-.372.833-.83.833h-.831a.832.832 0 01-.831-.833c0-.461.372-.834.83-.834zM.322 44.554a.834.834 0 010-1.178l3.22-3.23a3.33 3.33 0 01.507-.418 1.95 1.95 0 01.214-.121l.079-.044a2.44 2.44 0 01.284-.144c.084-.035.177-.063.27-.088l.11-.033c.075-.025.151-.048.231-.066.226-.044.445-.065.657-.065h12.46a.83.83 0 01.831.833c0 .46-.372.833-.83.833H5.895c-.11 0-.22.013-.329.034l-.31.095a.77.77 0 00-.089.049l-.16.086a1.509 1.509 0 00-.29.227l-3.22 3.23a.827.827 0 01-1.175 0zm47.594-4.21a.834.834 0 010-1.177l.587-.59a.828.828 0 011.175 0 .834.834 0 010 1.179l-.588.589a.827.827 0 01-1.174 0zm-1.334 1.34a.834.834 0 010 1.178l-1.255 1.258a.828.828 0 01-1.174 0 .834.834 0 010-1.178l1.254-1.259a.828.828 0 011.175 0zm-10.446 1.65c.458 0 .83.372.83.833 0 .46-.372.833-.83.833h-1.774a.832.832 0 01-.83-.833c0-.461.371-.834.83-.834zm5.32 0c.46 0 .83.372.83.833a.83.83 0 01-.83.833h-1.773a.831.831 0 01-.831-.833c0-.461.371-.834.83-.834zm-10.641 0c.458 0 .83.372.83.833 0 .46-.371.833-.83.833h-.83a.832.832 0 01-.831-.833c0-.461.372-.834.83-.834zm18.863.445a.834.834 0 010 1.178l-3.22 3.23a3.301 3.301 0 01-.51.42 1.86 1.86 0 01-.206.116l-.082.045a2.502 2.502 0 01-.28.143 2.24 2.24 0 01-.278.092l-.104.031c-.08.027-.16.05-.245.068a3.246 3.246 0 01-.647.065H7.22l-.805.649a.828.828 0 01-1.167-.127.835.835 0 01.126-1.172l1.26-1.017h37.473c.109 0 .217-.012.322-.033l.231-.07c.028-.008.055-.014.08-.025.034-.013.066-.034.1-.052l.156-.085c.125-.078.21-.148.288-.226l3.22-3.23a.829.829 0 011.175 0zm-16.371-4.612h9.423l2.25-2.256a.828.828 0 011.174 0 .834.834 0 010 1.178l-2.736 2.744H33.307a.832.832 0 01-.83-.833c0-.461.372-.833.83-.833zM13.215 27.14c-4.761-6.367-4.07-16.875 1.499-22.46A15.801 15.801 0 0125.978 0c4.255 0 8.255 1.662 11.264 4.682 5.567 5.584 6.26 16.091 1.48 22.485L25.978 45.63zm7.095-11.308c0 3.216 2.608 5.833 5.815 5.833 3.206 0 5.815-2.617 5.815-5.833S29.33 10 26.125 10c-3.207 0-5.815 2.617-5.815 5.833z"/>
        </svg>

        <svg viewBox="0 0 13 17" id="icon-psd" xmlns="http://www.w3.org/2000/svg">
          <path fill="#7347c1" d="M13 4.281V15.19c0 .999-.816 1.81-1.818 1.81H1.818A1.816 1.816 0 010 15.189V1.81C0 .81.816-.002 1.818-.002h6.863zM11.886 15.19l-.027-10.47-2.334.007a1.259 1.259 0 01-1.26-1.255v-2.37l-6.447.006a.703.703 0 00-.704.7V15.19c0 .388.316.702.704.702h9.364a.703.703 0 00.704-.702zM6.06 7.363c.295.233.494.615.494 1.066 0 .45-.151.832-.425 1.092-.357.334-.885.484-1.503.484-.137 0-.26-.007-.356-.02v1.644H3.235V7.091a8.546 8.546 0 011.413-.096c.645 0 1.104.123 1.413.368zm-.542 1.093c0-.423-.295-.676-.816-.676-.213 0-.357.02-.432.04v1.36c.089.02.199.027.35.027.555 0 .898-.28.898-.75zm4.701 1.815c0 .772-.597 1.427-1.866 1.427-.528 0-1.05-.137-1.31-.28l.213-.86c.281.144.713.287 1.16.287.48 0 .733-.199.733-.499 0-.287-.22-.45-.775-.649-.768-.266-1.269-.689-1.269-1.357 0-.785.659-1.386 1.75-1.386.52 0 .904.11 1.179.233l-.233.84a2.21 2.21 0 00-.968-.22c-.452 0-.672.205-.672.444 0 .293.261.423.858.649.816.3 1.2.722 1.2 1.371z"/>
        </svg>

        <svg viewBox="0 0 16 12" id="icon-reply" xmlns="http://www.w3.org/2000/svg">
          <path fill="#555" d="M16 11.666a.333.333 0 11-.667 0c0-1.416-3.2-2.93-8-2.997v2.33a1 1 0 01-1 1 .988.988 0 01-.673-.267l-.43-.398c-1.416-1.31-3.787-3.503-5-4.72A.862.862 0 010 6a.86.86 0 01.23-.615c1.213-1.217 3.584-3.41 5-4.72l.43-.398A.988.988 0 016.333 0a1 1 0 011 1v2.338C12.143 3.501 16 7.175 16 11.666zm-.844-1.576C14.364 6.616 11.008 4 7 4a.333.333 0 01-.334-.334V1a.334.334 0 00-.333-.334.323.323 0 00-.22.09l-.43.399C4.27 2.46 1.906 4.648.703 5.855c-.018.018-.037.07-.037.145 0 .074.019.126.037.144 1.203 1.207 3.567 3.394 4.98 4.7l.43.399c.044.041.119.09.22.09.184 0 .334-.15.334-.333V8.333C6.667 8.149 6.816 8 7 8c3.654 0 6.734.844 8.156 2.09z"/>
        </svg>

        <svg viewBox="0 0 120 101" id="icon-sell" xmlns="http://www.w3.org/2000/svg">
          <path fill="#fff" d="M120 10.278v54.907c0 5.54-4.507 10.046-10.047 10.046H75.97l3.412 10.24c3.228.837 5.62 3.773 5.62 7.26v2.5h7.5a2.5 2.5 0 010 5.001H27.5a2.5 2.5 0 010-5.001H35v-2.5c0-3.487 2.39-6.423 5.619-7.26l3.412-10.24H10.047C4.507 75.231 0 70.724 0 65.185V10.278C0 4.74 4.507.233 10.047.233h99.906C115.493.233 120 4.739 120 10.278zM77.5 90.231h-35a2.502 2.502 0 00-2.5 2.5v2.5h40v-2.5c0-1.379-1.121-2.5-2.5-2.5zm-3.469-5l-3.333-10H49.302l-3.333 10zm40.97-20.046V15.232H20.43a2.5 2.5 0 010-5h94.566a5.052 5.052 0 00-5.044-5H10.047A5.053 5.053 0 005 10.278v47.454h94.97a2.5 2.5 0 110 5H5v2.453a5.053 5.053 0 005.047 5.047h99.906A5.053 5.053 0 00115 65.185zM42.94 28.678a2.499 2.499 0 012.462-2.929v-.001h12.91a2.5 2.5 0 010 5h-9.927l1.38 7.738 14.771.983 1.305-10.29.757-5.973a2.49 2.49 0 012.48-2.178l5.529.027a2.49 2.49 0 01-.02 4.98l-3.326-.017-.48 3.785-1.6 12.624a2.489 2.489 0 01-2.636 2.171v.006l-19.063-1.269a2.496 2.496 0 01-2.292-2.06h-.003zm10.977 20.76a2.505 2.505 0 01-2.5 2.498 2.505 2.505 0 01-2.5-2.499 2.506 2.506 0 012.5-2.501c1.377 0 2.5 1.124 2.5 2.501zm12.744 0a2.505 2.505 0 01-2.5 2.498 2.505 2.505 0 01-2.5-2.499 2.506 2.506 0 012.5-2.501c1.377 0 2.5 1.124 2.5 2.501zM15.265 12.731a2.5 2.5 0 01-2.5 2.501h-1.123a2.501 2.501 0 010-5.001h1.123a2.5 2.5 0 012.5 2.5zm89.423 47.5a2.5 2.5 0 012.5-2.5h1.057a2.5 2.5 0 110 5h-1.057a2.5 2.5 0 01-2.5-2.5z"/>
        </svg>

        <svg viewBox="0 0 20 21" id="icon-share" xmlns="http://www.w3.org/2000/svg">
          <path d="M18.934 14.924A3.498 3.498 0 0120 17.442c0 .95-.379 1.844-1.066 2.516A3.664 3.664 0 0116.364 21a3.664 3.664 0 01-2.572-1.042 3.497 3.497 0 01-.824-3.787l-6.292-3.739a3.654 3.654 0 01-3.04 1.612C1.631 14.044 0 12.447 0 10.484c0-1.962 1.631-3.56 3.636-3.56 1.271 0 2.39.643 3.04 1.613l6.294-3.71a3.473 3.473 0 01-.243-1.268c0-1.963 1.632-3.56 3.637-3.56S20 1.596 20 3.56s-1.631 3.56-3.636 3.56a3.65 3.65 0 01-3.066-1.654L7.013 9.17c.166.407.26.85.26 1.315 0 .464-.094.906-.26 1.314l6.283 3.734a3.62 3.62 0 01.496-.609 3.695 3.695 0 015.142 0zM13.454 3.56c0 1.57 1.306 2.847 2.91 2.847s2.909-1.277 2.909-2.847S17.968.71 16.363.71c-1.604 0-2.908 1.278-2.908 2.848zm-6.908 6.926c0-1.57-1.305-2.848-2.91-2.848-1.603 0-2.908 1.277-2.908 2.848 0 1.57 1.305 2.847 2.909 2.847 1.604 0 2.909-1.277 2.909-2.847zm12.727 6.957a2.8 2.8 0 00-.852-2.014 2.934 2.934 0 00-2.057-.833c-.745 0-1.49.278-2.057.833a2.8 2.8 0 00-.852 2.014c0 .76.302 1.475.852 2.013a2.957 2.957 0 004.113 0 2.8 2.8 0 00.853-2.013z"/>
        </svg>

        <svg viewBox="0 0 20 20" id="search" xmlns="http://www.w3.org/2000/svg">
          <path fill="#fff" d="M18.869 19.162l-5.943-6.484A7.448 7.448 0 0015.001 7.5c0-2.003-.78-3.887-2.197-5.303S9.504 0 7.501 0 3.614.78 2.198 2.197.001 5.497.001 7.5s.78 3.887 2.197 5.303S5.498 15 7.501 15a7.441 7.441 0 004.688-1.645l5.943 6.483a.497.497 0 00.707.031.5.5 0 00.031-.706zM1 7.5C1 3.916 3.916 1 7.5 1S14 3.916 14 7.5 11.084 14 7.5 14 1 11.084 1 7.5z"/>
        </svg>
    </svg>